<svg id="Capa_1" data-name="Capa 1" xmlns="http://www.w3.org/2000/svg" viewBox="0 0 3252.94 829.11"><defs><style>.cls-1{fill:#f4f4f5;}.cls-2{fill:#c6cacb;}.cls-3{fill:#fefefe;}.cls-4{fill:#d8dadb;}.cls-5{fill:#e1726a;}.cls-6{fill:#3b3a39;}.cls-7{fill:#f9cdb5;}.cls-8{fill:#e4af57;}.cls-9{fill:#c9b68f;}.cls-10{fill:#a5a3a3;}.cls-11{fill:#f9f9f9;}.cls-12{fill:#db5658;}.cls-13{fill:#9c9c9c;}.cls-14{fill:#fce2d4;}.cls-15{fill:#e3ae56;}</style></defs><title>objetives-title</title><path class="cls-1" d="M3301.93,1684.48c13,1.12,16.18,4.58,16.78,16.87,2,41.64,3.67,83.31,6.61,124.89,1.87,26.45,2.72,52.92,4.1,79.38,2,39.15,4.45,78.28,6.23,117.45.7,15.55-1.46,17.48-17.46,17.87-11.73.28-23.12,2.53-34.62,4.3-3.24.5-5.23,1.27-5.23,5.08,0,22.53-.16,45-.26,67.58h-74.75c0-16.7-.32-33.41.12-50.1.19-7.31-2-10.06-9.59-9.91-6.08.13-12.77,2.6-18.4-2.13-1-2.34-1.08-3.84,2.25-4.17q30.59-3.11,61.16-6.49c26.72-2.95,53.42-6.13,80.16-8.94,9.48-1,13.44-5.13,12.56-15.16-2-22.2-3.11-44.48-4.41-66.74-2.15-36.76-4.24-73.55-5.77-110.3-1.9-45.68-6.24-91.22-7-136.92-.17-10.22-2.7-17.16-12.6-20.53A3.21,3.21,0,0,1,3301.93,1684.48Z" transform="translate(-82.82 -1288.8)"/><path class="cls-2" d="M1000.08,2051.6c5.94,2.51,9.45,2.89,14.14,0C1009.5,2048.82,1006,2049.08,1000.08,2051.6Z" transform="translate(-82.82 -1288.8)"/><path class="cls-3" d="M2187,2056.65c21-1.44,21-1.44,21,18.73q0,21.27,0,42.52h-34.17C2184.75,2098.88,2184.38,2077.45,2187,2056.65Z" transform="translate(-82.82 -1288.8)"/><path class="cls-3" d="M1424.18,2117.9H1285.35l-.18-15.25-.05.13c11.82,1.41,23.6,3.34,35.46,4,5.29.3,12,3.79,16.06-3.26l6.27.3c3.83,10.69,10.95,4.85,17.19,3.42l19.18.5c3.54,6.42,8.18,4.16,12.86,1.62l14.89.33c1.12,4.36,3.22,5.15,6.47,1.79C1418,2112,1424.68,2109,1424.18,2117.9Z" transform="translate(-82.82 -1288.8)"/><path class="cls-3" d="M1281.08,2117.9h-68.35l-.12-19.24c18.06-.54,35.84,2.34,53.73,4.14C1281,2104.26,1281,2103.72,1281.08,2117.9Z" transform="translate(-82.82 -1288.8)"/><path class="cls-4" d="M2187,2056.65c-2.62,20.8-2.25,42.23-13.14,61.25H2064.93l-.46-4.24.78-.3c2.68-4.28,6.83-4.62,11.2-4,24.54,3.35,49.22,2.14,73.86,2.24,30.21.13,22.4,0,28-25,2.32-10.29-.82-22.23,8.28-30.71Z" transform="translate(-82.82 -1288.8)"/><path class="cls-2" d="M1424.18,2117.9c.5-8.89-6.14-5.9-10.68-6.41-1.65-2.41-4-2.12-6.47-1.79l-14.89-.33c0-.89,0-1.79,0-2.69,14.45-4.22,28.55,1.16,42.79,1.94,7.51.4,10.71-.87,10.57-8.55-.16-9.21-.37-18.45.15-27.63.33-6-.65-12.86,6-16.77l.78.73c-2.46,13.94-3,28-2.73,42.11.21,13.3-1.28,14.56-14.3,15-3.57.12-8.27-1.64-9.06,4.4Z" transform="translate(-82.82 -1288.8)"/><path class="cls-3" d="M2064.47,2113.66l.46,4.24h-68.35c-.66-6.13,1.52-9.14,8.25-8.6C2024.7,2110.92,2044.59,2112.23,2064.47,2113.66Z" transform="translate(-82.82 -1288.8)"/><path class="cls-1" d="M1212.61,2098.66c.19-4.51,3.36-4.81,6.7-4.56,19.55,1.44,39.1,2.83,58.61,4.61,2.52.22,4.84,2.57,7.26,3.94q.08,7.62.17,15.25h-4.27c-.06-14.18-.11-13.64-14.74-15.1C1248.45,2101,1230.67,2098.12,1212.61,2098.66Z" transform="translate(-82.82 -1288.8)"/><path class="cls-5" d="M980.68,1293.69c-1,2.44.36,4.43,1.27,6.5.37,47.89,3.67,95.65,6.17,143.46q2.29,44.07,4.2,88.16,3.09,69.62,6.6,139.18c1.47,28.32,2.49,56.65,4.18,85,2.78,46.71,4.6,93.49,6.64,140.24,1,23.4.65,46.9,2.77,70.19,1.45,16,.44,32,2.11,47.82,2.36,22.36,2.77,22.16-19,20.63-44.54-3.11-89.1-6-133.65-9,13-12.29,23.91-26,31-42.76,11.11-26.44,13.61-54.33,14-82.36.69-47.63.21-95.26.22-142.9,0-44.43-.23-88.86.2-133.29.08-8.56-2.43-11.09-10.78-10.6a265.91,265.91,0,0,1-34.11,0c-9.05-.62-11.22,2.53-11.18,11.3.32,81,.16,162.09.2,243.14a652.7,652.7,0,0,1-4,73.29c-4.17,37-21.18,56-57.6,64.21-3.46.78-6.95,1.8-10.45,1.9-8,.25-10.31,4.47-9.08,11.66-6.32-1.3-12.66-2.31-19.14-1.51-7.75.36-9.6-2.36-7.21-10.21,8.45-27.82,15.41-56.1,24.36-83.75,7.62-23.55,2-46.07-2-68.93.85-15.78-1.63-31.25-4.37-46.69a148.54,148.54,0,0,0-3.8-33.94l-19.83-183.78a150.11,150.11,0,0,0-3.89-31.88c-3.94-37-7.81-74.06-11.84-111.07q-6.84-62.92-13.91-125.84c-.19-1.76-.17-3.55-.35-5.31-2.47-24.06-2.47-24,21.26-24.32q119.91-1.44,239.82-2.79C973.44,1289.3,979.16,1286.58,980.68,1293.69Zm-67.24,235.09c.17-20.1-15-36.15-34.05-36a36,36,0,0,0-35.63,35.09c-.5,18.23,15.69,34.48,34.53,34.66C897.83,1562.66,913.29,1547.84,913.44,1528.78Z" transform="translate(-82.82 -1288.8)"/><path class="cls-6" d="M1054.87,2070.72l-4.27-.4c-5.62-3.9-.6-9.7-2.54-14.25.09-.73.18-1.47.26-2.2,5.22-26.14,7.18-52.72,10.5-79.1,9.2-73,18-146,26.94-219q12.26-100,24.46-200c1.47-12,3.16-24,4.24-36,.47-5.35,2.12-7.23,7.83-7q129,5.48,258.08,10.56c22.75.93,45.49,2.05,68.25,2.85,4.73.17,8.53.5,7.81,6.64,0,1.43-.07,2.87-.11,4.3-.56,5.64-1.44,11.28-1.65,16.94q-3.33,92.1-6.49,184.21-3.21,91.57-6.39,183.15c-1.8,54.67-3.38,109.35-5,164-.42,14-.4,14.35-14.72,13.3q-72.75-5.31-145.46-11.05c-28-2.16-55.91-4.54-83.87-6.7q-66.87-5.16-133.75-10.17Zm136.05-123.06c1-9.22,1.83-16.28,2.6-23.34q6.39-58.24,12.71-116.5c.41-3.86,1.32-5.76,5.81-5.18,13.74,1.75,27.52,3.16,41.3,4.64,37.09,4,74.2,7.83,111.26,12,6.8.77,9.86-1.16,10.22-8.19.47-9.22,1.34-18.44,2.62-27.58.92-6.6-.7-9.19-8-9.94-48-5-96.06-10.4-144.06-15.91-14-1.6-13.87-1.93-12.28-16.05,4.19-37,8.47-74.09,12.22-111.19.7-7,2.7-9.17,9.74-8.34,24.7,2.92,49.46,5.28,74.19,8q42.92,4.64,85.8,9.48c5,.56,7.84-.14,8.25-6.24.71-10.62,2.31-21.18,3.69-31.74.72-5.48-.47-8.21-6.94-8.89q-106.51-11.25-213-23.19c-7.64-.85-11.61.51-12.47,9.15-4.14,41.7-8.7,83.36-13.23,125q-8,73.61-16.2,147.19c-5.11,46.6-10.11,93.21-15.32,139.8-.58,5.25,1.61,6.92,6.35,7.39q32.36,3.24,64.67,6.75c49.44,5.38,98.84,11.27,148.33,16.09,24.31,2.36,20.89,6.57,23.74-18.66.56-4.94.89-9.94,1.91-14.79,1.72-8.11-1.49-11.27-9.53-12.11-54.42-5.65-108.79-11.83-163.23-17.2C1193.09,1957.2,1188.47,1955.29,1190.92,1947.66Z" transform="translate(-82.82 -1288.8)"/><path class="cls-7" d="M1582,2056.29l-1.94-2.64c-1.26-25.49-6.33-50.5-9.51-75.75-4.15-33-9.3-65.79-14-98.69q-8.17-57.21-16.31-114.42-7.85-55.12-15.65-110.25c-4.67-33.26-8.87-66.58-14.05-99.76-1.21-7.72.73-9.19,7.74-9.29,38.37-.54,76.7-2.57,115.09-1.88,71.11,1.26,142.18-2,213.28-2.12,5.73,0,11.82-1,13,7.11-1.61,2.87-1.85,6-2,9.24-1.29,34-3.19,68-3.89,102-.89,43.26-2.73,86.47-4.19,129.7-1.4,41.45-2.44,82.91-4.32,124.36-1.61,35.43-1.84,70.93-2.6,106.41-.13,6-1.06,12-1.44,18-.5,7.91-4.48,9.14-11.06,9.28-10.89.22-21.76,1.22-32.36,4l-29.86,2.26c-9.87.88-19.76,1.62-29.62,2.66-31.67,3.35-63.34,6.71-95,10.28-16.83,1.9-33.61,4.23-50.41,6.37l-4.32,0C1579.85,2070.15,1583.13,2062.36,1582,2056.29Zm149.58-231.64c0-53,.19-106-.19-159-.07-8.66,2-11.6,11.1-11.44,32,.56,64.07,0,96.1.38,7.68.1,11.26-1.59,10.39-10a87.85,87.85,0,0,1,0-19.18c1.2-10.35-1.71-14-13.11-13.78-42,.79-84,.31-126,.31-44.49,0-89,.2-133.47-.18-8.37-.07-12.59,1.38-11.56,10.87a120.47,120.47,0,0,1,0,22.39c-.61,7.64,2.34,9.6,9.7,9.52,31.67-.36,63.35.15,95-.34,8.73-.14,11.5,2.14,11.44,11.19-.38,63.68-.2,127.36-.2,191,0,42.33.18,84.67-.16,127-.06,8,1.57,11.72,10.51,11a197.24,197.24,0,0,1,29.87,0c8.57.62,10.74-2.42,10.68-10.77C1731.44,1930.67,1731.62,1877.66,1731.62,1824.65Z" transform="translate(-82.82 -1288.8)"/><path class="cls-6" d="M3045.27,2056.11l-6.09-.34c-.23-.68-.47-1.36-.7-2.05q-14.1-78-28.21-156-10.91-59.7-22.23-119.31c-1-5.32.07-9.29,3.65-13.55q53.47-63.7,106.52-127.77c3.27-3.93,6-7.19,12.28-5.48,62,16.85,124,33.4,186,50.07,2,.54,4.34.51,5.42,2.83a3.21,3.21,0,0,0-.12,2c.74,15.6,1.42,31.21,2.22,46.81q2.38,46.31,4.86,92.6,5.12,94.71,10.38,189.42c.35,6.08-1,8.91-7.71,9.53-19.09,1.77-38.12,4.24-57.17,6.41-48,5.46-96,10.8-143.93,16.4C3088.7,2050.23,3067,2053.29,3045.27,2056.11Zm82.85-324.78c-17.31.22-35,4.07-51.27,14.12-39.23,24.23-42.41,77.08-6.16,105.38,11.33,8.85,24.1,14.92,37.46,20,12,4.52,23.87,9.27,33.9,17.57,11.73,9.7,14.75,22.52,11.63,36.57-2.87,12.91-12.12,20.68-24.61,24.19-19.93,5.61-39.26,2.32-58.6-3.87-7.38-2.37-14.8-12.13-21.41-6.78-5.35,4.32-5.29,15-8.5,22.43-2.66,6.23-.48,9.14,5,11.4,34.39,14.16,69.4,17.81,104.93,5.1,25.77-9.21,42.47-27.12,46.2-54.83,3.92-29.14-6.6-52.24-31.59-68.33a160.64,160.64,0,0,0-28.54-14.3c-10.57-4.15-21.2-8.23-31-14.13-14.93-9-20.58-20.7-17.29-35.54,2.85-12.83,14.9-22.89,30.23-24.73,13.21-1.59,26.07,0,39,3.47,7.18,1.89,14.35,11.22,20.79,5.66,5.13-4.44,5.34-14.29,8.5-21.4,2.54-5.71.7-8.39-4.49-10.61A136.43,136.43,0,0,0,3128.12,1731.33Z" transform="translate(-82.82 -1288.8)"/><path class="cls-8" d="M1947.13,2090.46c-6.26.26-8.67-2.41-8.24-8.93.55-8.42.06-16.91,0-25.38,0-.82,0-1.63,0-2.45.62-11.68,1.55-23.36,1.81-35,1.77-79.48,2.92-159,5.31-238.45.91-30.16,1-60.32,1.85-90.47.46-16.38.35-16.21,16.64-13.35,30,5.27,60,10.31,90.09,15.45,4.28,12.53,11.75,21.35,25.91,22.7,12.7,1.21,22.5-3.93,30.47-13.36,4.53,3.72,10.41,2.42,15.49,4.14,30.84,5.33,61.69,10.56,92.49,16.11,3.19.57,8.61-.07,7.68,6.23-7,41-14.21,82.09-21.14,123.17-13.39,79.49-27,158.93-39.51,238.56-1.74,11.17-6.23,13.19-15.32,13.58-27,1.17-54-1-80.86-2.7-11.26-.7-22.62-1.21-33.91-2.28C2006.38,2095.17,1976.74,2092.93,1947.13,2090.46Zm113.4-199c0,41.23.17,82.46-.15,123.69-.06,7.42,2,10,9.56,9.57a208.47,208.47,0,0,1,27.72,0c8.35.6,10.94-2.12,10.84-10.66-.44-38.38-.19-76.77-.19-115.15,0-43-.23-86,.2-129,.08-8.59-2.56-11.2-10.86-10.6a201.92,201.92,0,0,1-27.72,0c-7.51-.49-9.62,2.08-9.56,9.54C2060.71,1809.77,2060.53,1850.64,2060.53,1891.51Z" transform="translate(-82.82 -1288.8)"/><path class="cls-7" d="M2620.11,1690c0-61.17.23-122.34-.1-183.51-.05-8.81,1.75-11.65,11.35-12.74,17-1.92,34-1.78,50.91-3.13,47-3.76,94.07-5.92,141.12-8.76,10.63-.64,21.34.8,31.92-1.25,4.73-.92,3.89,2.8,4.31,5.41,0,1.77.34,3.35,2.05,4.27a69,69,0,0,0-.22,7.46c2.29,30,4.56,60,7,90.06,1.34,16.22,3.1,32.41,4.6,48.63q3.83,41.22,7.57,82.45c-22.19-19.45-47.42-32.6-77.1-35.5-55.12-5.37-101.58,10.83-133.39,58.07-24.66,36.64-28.81,78.07-22.15,120.77,12.84,82.28,84.11,125.64,160.32,111.35,37.92-7.11,67.37-27.11,89.48-58.38,1.28,11.94,2.8,23.85,3.79,35.82,1.83,22.2,3.2,44.44,5.08,66.63.65,7.7-3.28,10-9.92,10.47-19.4,1.34-38.77,3.54-58.19,4-46.45,1.21-92.92,1.73-139.38,2.37-22,.3-44,.23-66.05.32h-4.61c-4.64.15-6.17-2.3-6-6.67.19-5.69.09-11.39,0-17.08-1.34-102,2.3-204.11-2.29-306.12Z" transform="translate(-82.82 -1288.8)"/><path class="cls-7" d="M95.8,1983.52l-4.48,0c-8.38,0-6.08-6.28-6.09-10.74Q85,1891.2,85,1809.61c0-22,.37-44.1-.15-66.14-2.28-95.57-1.83-191.16-2-286.74,0-14.5.69-14.88,15.69-15.58,44.27-2.07,88.53-4.17,132.77-6.69,27.56-1.58,55.08-4,82.62-5.9,3.34-.24,7.49-1.32,8.32,4q.07,3.26.14,6.51,4.2,46.52,8.4,93,2.4,26.43,4.89,52.86,3.81,41.21,7.63,82.42c-31.16-28.74-68.28-39.84-110-36.16-36.54,3.23-67.68,17.72-91.66,46.23-18.67,22.2-28.84,48.17-32.13,76.53-4.35,37.4-.71,73.81,18.8,107.22,36.78,63,113.73,76.5,174,51,24.3-10.31,42.78-27.54,58.13-48.54.2,2.83.37,5.67.62,8.5,2.71,31,5.37,62.09,8.22,93.12.6,6.47-1.25,9.07-8.28,10.3-25.67,4.48-51.66,4-77.45,5.13-49.36,2.1-98.81,1.92-148.23,2.62C122.14,1983.51,109,1983.46,95.8,1983.52Z" transform="translate(-82.82 -1288.8)"/><path class="cls-5" d="M2310.5,2005.32c-7.49-6.87-4.9-16.49-6-24.73-11.62-90.15-22.68-180.37-33.86-270.57-3.8-30.66-7.65-61.31-11.23-92-1.49-12.74-1.17-12.86,11.86-10q120.1,26.71,240.19,53.5,46.26,10.32,92.5,20.78c3.61.81,8.61.31,6.65,6.69-2.54,5.45-5.26,10.82-7.61,16.36q-21.63,50.91-43.1,101.9c-29.47,69.92-60,139.43-86.06,210.72-2.23,6.09-5,8.45-11.4,8.2a492.72,492.72,0,0,1-53.83-5.48q-46.68-7-93.34-14Zm55.16-113-2.08-.32c0-5.63.54-11.33-.08-16.89-7.64-68-15.49-136-23.1-204.06-.59-5.24-2.84-7.19-7.82-8.15-11.49-2.22-22.89-4.91-34.25-7.75-8.35-2.1-9.72,1.1-8.49,8.74,4.29,26.6,8.21,53.26,12,79.93Q2315.1,1835.4,2328,1927c.92,6.52,3.87,10,10.43,11.12,8.4,1.4,17,2.41,24.95,5.32,9.5,3.5,14-.38,18.91-7.8,35.73-53.5,71.86-106.74,107.83-160.07,14.87-22,29.67-44.15,45.29-67.4-14.49-3.21-27.76-5.53-40.63-9.25-7-2-10.14,0-13.57,5.68-17.34,28.56-35,56.9-52.57,85.33Q2397.14,1841.12,2365.66,1892.3Z" transform="translate(-82.82 -1288.8)"/><path class="cls-6" d="M486,1562.49c.72-1.1,1.45-3.17,2.15-3.16,16.59.29,33.27-2.22,49.78,1.2v175.32c1.11-.14,1.55-.07,1.7-.24a26.59,26.59,0,0,0,2-2.53c25.84-37.32,62.24-50.41,106.26-46.9,24,1.91,44.09,12.31,62.88,26.24q4.21,4.3,8.45,8.6c.91,1.89,2,3.62,4.15,4.31h0l20,33.75c4.13,15.34,9.6,30.29,11,46.36,5.6,65.77-7.65,123.62-67.11,162.47-3.24,1.42-6.49,2.82-9.72,4.27-45.62,20.5-98.43,11.49-129.84-22.44-5.41-5.85-9.88-12.58-15.94-20.38-.48,6.2-.19,10.79-1.29,15-2.72,10.47,4.36,25.28-4.63,30.82-8,5-21.44.82-32.42,1.55-8,.54-9.47-2.88-9-9.93,2.66-38.7,2.08-77.48,2.07-116.24q0-137.65,0-275.31C486.44,1571,486.18,1566.75,486,1562.49Zm51.65,272c0,10,0,17.81,0,25.63.23,39.76,27.36,73.29,64.78,80.1,40.5,7.37,77.38-13.48,91.57-52.4,12.43-34.08,13.53-68.61,2.1-103.25-12.73-38.58-43.71-59.92-83.32-57.54-35.22,2.11-65.9,31.06-73.29,68.24C536.79,1809.09,538.43,1822.88,537.68,1834.49Z" transform="translate(-82.82 -1288.8)"/><path class="cls-9" d="M486,1562.49c.15,4.26.41,8.52.41,12.78q0,137.65,0,275.31c0,38.76.59,77.54-2.07,116.24-.48,7,1,10.47,9,9.93,11-.73,24.38,3.41,32.42-1.55,9-5.54,1.91-20.35,4.63-30.82,1.1-4.24.81-8.83,1.29-15,6.06,7.8,10.53,14.53,15.94,20.38,31.41,33.93,84.22,42.94,129.84,22.44,3.23-1.45,6.48-2.85,9.72-4.27-1.46,19.71-2.71,39.43-4.54,59.09-.43,4.57-1.07,10-8.45,9.89-14.5-.21-29,.7-43.44,1.67-29.32,2-58.73.09-88.17,2-34.25,2.17-68.74-.3-103,2.7a11,11,0,0,0-8.27,2c-.74-12.39-2-24.78-2.14-37.17-1.06-71.44-1-142.9-3.12-214.3-1.12-38.37,0-76.78-2-115.09-1.77-34.11-.77-68.22-1.94-102.3-.28-8.29,1.36-11.39,10.68-12.09C450.54,1562.94,468.29,1563.28,486,1562.49Z" transform="translate(-82.82 -1288.8)"/><path class="cls-9" d="M710.75,1712.42c-18.79-13.93-38.9-24.33-62.88-26.24-44-3.51-80.42,9.58-106.26,46.9a26.59,26.59,0,0,1-2,2.53c-.15.17-.59.1-1.7.24V1560.53c60.47-2.45,120.95-4.83,181.42-7.52,5.06-.23,6.49,1.13,5.91,5.7-2.07,1.62-1.42,3.91-1.49,6-1.57,20.43-2.95,40.88-4.77,61.29C716.44,1654.84,713.52,1683.63,710.75,1712.42Z" transform="translate(-82.82 -1288.8)"/><path class="cls-10" d="M1797.88,2051.58c10.6-2.83,21.47-3.83,32.36-4,6.58-.14,10.56-1.37,11.06-9.28.38-6,1.31-11.93,1.44-18,.76-35.48,1-71,2.6-106.41,1.88-41.45,2.92-82.91,4.32-124.36,1.46-43.23,3.3-86.44,4.19-129.7.7-34,2.6-68,3.89-102,.12-3.25.36-6.37,2-9.24,10.64-1.73,12.9,4.25,12.51,13.19-2.13,49.9-4.34,99.79-6.15,149.7-1.18,32.6-1.81,65.22-2.51,97.84-1.12,52.44-4.41,104.8-4.76,157.29-.2,29-3.48,57.92-3,87-.06.8-.11,1.61-.17,2.42l0,.49a2.1,2.1,0,0,0-1.86-.11l-4.54-.34c-4.9-4.34-10.79-1.58-16.19-2.2C1821.4,2052.5,1809.36,2056.35,1797.88,2051.58Z" transform="translate(-82.82 -1288.8)"/><path class="cls-10" d="M1947.13,2090.46c29.61,2.47,59.25,4.71,88.83,7.52,11.29,1.07,22.65,1.58,33.91,2.28,26.89,1.67,53.83,3.87,80.86,2.7,9.09-.39,13.58-2.41,15.32-13.58,12.46-79.63,26.12-159.07,39.51-238.56,6.93-41.08,14.09-82.12,21.14-123.17,10,1.36,13.33,5.79,11.27,16.68-7.49,39.57-13.87,79.36-20.59,119.07q-15.54,92-30.94,184c-.34,2,.21,4.21.34,6.33-.06.71-.11,1.42-.17,2.14-9.1,8.48-6,20.42-8.28,30.71-5.62,25,2.19,25.12-28,25-24.64-.1-49.32,1.11-73.86-2.24-4.37-.59-8.52-.25-11.2,4-4.49-6.6-11.58-5.55-18-5.8-30.86-1.19-61.58-4.23-92.33-6.82C1947.91,2100.15,1947.14,2095.83,1947.13,2090.46Z" transform="translate(-82.82 -1288.8)"/><path class="cls-10" d="M2315.3,2006.69q46.66,7,93.34,14a492.72,492.72,0,0,0,53.83,5.48c6.37.25,9.17-2.11,11.4-8.2,26.09-71.29,56.59-140.8,86.06-210.72q21.48-51,43.1-101.9c2.35-5.54,5.07-10.91,7.61-16.36l9.47,1,.12,15c-11,20.29-18.6,42-27.62,63.18q-38.15,89.41-75.09,179.33c-8.32,20.25-18,40-23.31,61.46-2-.65-4.05-1.63-4.89,1.44-2.28,8.22-7.24,15.58-7.71,24.37h0l-32.61.34-6-.1c-6.36-2.51-12.69-6.55-19.23-.42h0l-2.18.06h0c-.15-3.07-1.55-4.52-4.73-3.68l-5.89-.15c-2.33-3.76-5.76-2.55-9.05-2l-3.77-.15c-3.26-3.91-6.88-3.28-10.65-.84l-4-.24c-1.78-5-5.71-3.6-9.33-3.08l-3.8-.15c-6.76-4.35-13.94-5-21.49-2.46-1-1.53-2.51-1.74-4.13-1.69-1.07-2.49-2.45-3-4.27-.66l-8.56.09.32-.6c-.82-2.59-1.81-4.69-4.59-1.54C2320,2018,2315.45,2014.81,2315.3,2006.69Z" transform="translate(-82.82 -1288.8)"/><path class="cls-6" d="M2111,1701.17c-8,9.43-17.77,14.57-30.47,13.36-14.16-1.35-21.63-10.17-25.91-22.7-.87-18.59,5.55-30.22,19.32-35,14.8-5.15,27.35-.28,38.05,14.79C2114.68,1681.56,2115.23,1691.44,2111,1701.17Z" transform="translate(-82.82 -1288.8)"/><path class="cls-2" d="M1456.32,1537.14c0-1.43.07-2.87.11-4.3,9.82-1.27,12.78,3,12.78,12.79,0,54.28-4.85,108.39-5.15,162.69-.19,32.87-2.18,65.85-4.09,98.71-1.61,27.7-.24,55.4-2.06,83-2.62,39.64-3.46,79.29-4.47,119-.37,14.84-2,29.67-1.19,44.57l-.7.71c-4.86-.93-5.81-4.32-6-8.67-.28-7.85,1.64-15.54,1.85-23.24.83-31.16,3.11-62.27,4-93.39,1.23-42.16,2.36-84.3,4.2-126.46,1.85-42.46,2.06-85,4.4-127.5s1.7-85.06,4.66-127.52C1465.14,1541.37,1463.89,1536.72,1456.32,1537.14Z" transform="translate(-82.82 -1288.8)"/><path class="cls-11" d="M2398.12,2028.71l3.78.15c2.15,4.57,5.3,4.62,9,2l5.89.14a4.54,4.54,0,0,0,4.73,3.69h0c.18,19.07.18,19.07-19,19.07-14.17,0-28.36-.31-42.52.13-7,.22-9.35-2.28-9.13-9.19.16-4.68,2.08-9.93-1.88-14.19,0-1.46-.05-2.92-.07-4.38,6.8-4.67,14.51,2,21.38-1.74l3.8.14c1.85,4.83,5.66,3.75,9.33,3.09l4,.25C2390.75,2031.65,2394.37,2031,2398.12,2028.71Z" transform="translate(-82.82 -1288.8)"/><path class="cls-2" d="M2861.67,1490.3c-1.71-.92-2.07-2.5-2.05-4.27,13.41.46,13.7,1.58,14.83,14.86,3,35.88,6.85,71.69,10.22,107.55,1.68,17.94,3.08,35.91,4.58,53.87,2.08,25,3,50.1,7.49,74.85a9,9,0,0,0-.93.69l-4.44-6.24c-3.49-34.06-7.29-68.09-10.38-102.18-3.95-43.63-7.41-87.3-10.83-131C2869.7,1492.6,2867.45,1490,2861.67,1490.3Z" transform="translate(-82.82 -1288.8)"/><path class="cls-2" d="M723.8,1564.74c.07-2.12-.58-4.41,1.49-6l9.16,0a150.11,150.11,0,0,1,3.89,31.88c-7.16,4.45-3.57,11.63-4.14,17.56-3.82,39.06-7.28,78.14-10.85,117.22-2.16-.69-3.24-2.42-4.15-4.31.09-11,2.11-21.79,2.65-32.76,1-19.7,3.75-39.31,5.58-59,1.73-18.63,3.11-37.3,4.85-55.94C732.9,1566.77,730.16,1564.13,723.8,1564.74Z" transform="translate(-82.82 -1288.8)"/><path class="cls-10" d="M2111,1701.17c4.19-9.73,3.64-19.61,1-29.57,15.16,6.8,13.72,20.74,14.5,33.72C2121.45,1703.59,2115.57,1704.89,2111,1701.17Z" transform="translate(-82.82 -1288.8)"/><path class="cls-1" d="M360.57,2053.76l-4.36,0q0-29.84.05-59.65l4.17-.15Q360.51,2023.84,360.57,2053.76Z" transform="translate(-82.82 -1288.8)"/><path class="cls-1" d="M2315.3,2006.69c.15,8.12,4.65,11.3,12.34,10.85l0,2.36c-11.59,2.42-15.83-1.2-17.1-14.58Z" transform="translate(-82.82 -1288.8)"/><path class="cls-2" d="M2370.36,2024.4c-6.87,3.72-14.58-2.93-21.38,1.74,0-1.4-.07-2.8-.11-4.2C2356.42,2019.4,2363.6,2020.05,2370.36,2024.4Z" transform="translate(-82.82 -1288.8)"/><path class="cls-1" d="M2331.91,2019.68l8.56-.09c0,.82,0,1.63,0,2.45C2336.62,2024.72,2333.32,2025.61,2331.91,2019.68Z" transform="translate(-82.82 -1288.8)"/><path class="cls-2" d="M2340.42,2022c0-.82,0-1.63,0-2.45,1.82-2.33,3.2-1.83,4.27.66Z" transform="translate(-82.82 -1288.8)"/><path class="cls-2" d="M2327.6,2019.9l0-2.36c2.78-3.15,3.77-1,4.59,1.54Z" transform="translate(-82.82 -1288.8)"/><path class="cls-10" d="M3045.27,2056.11c21.73-2.82,43.43-5.88,65.19-8.43,48-5.6,95.95-10.94,143.93-16.4,19.05-2.17,38.08-4.64,57.17-6.41,6.68-.62,8.06-3.45,7.71-9.53q-5.37-94.69-10.38-189.42-2.49-46.29-4.86-92.6c-.8-15.6-1.48-31.21-2.22-46.81,9.9,3.37,12.43,10.31,12.6,20.53.76,45.7,5.1,91.24,7,136.92,1.53,36.75,3.62,73.54,5.77,110.3,1.3,22.26,2.46,44.54,4.41,66.74.88,10-3.08,14.16-12.56,15.16-26.74,2.81-53.44,6-80.16,8.94q-30.57,3.36-61.16,6.49c-3.33.33-3.27,1.83-2.25,4.17l-19.09.68c-7.19-.43-14.44-1.6-21.32,1.73l-2.62.53-14.27.17c-18-.58-35.72,1.86-53.37,4.73-7.71,1.25-14.61,1.91-19.59-5.49A6.72,6.72,0,0,1,3045.27,2056.11Z" transform="translate(-82.82 -1288.8)"/><path class="cls-12" d="M2891.37,1731.61l4.44,6.24,9.18,17,1.63,2,.09.07c19.79,54,18.82,106.93-8.9,158.31-22.11,31.27-51.56,51.27-89.48,58.38-76.21,14.29-147.48-29.07-160.32-111.35-6.66-42.7-2.51-84.13,22.15-120.77,31.81-47.24,78.27-63.44,133.39-58.07,29.68,2.9,54.91,16,77.1,35.5Q2886,1725.25,2891.37,1731.61ZM2697,1828.52c.3,29.9,7,55.94,24.19,78.69,30.3,40.13,89.21,40.54,120.87,1.46,33.95-41.92,33.46-110.67,5.24-153.35-30.12-45.55-94.17-47-127-3.29C2702.8,1775.15,2697.67,1802.13,2697,1828.52Z" transform="translate(-82.82 -1288.8)"/><path class="cls-10" d="M2634.91,2047.77l-2.09-2.22c.11-3.56.21-7.12.32-10.68,22-.09,44,0,66.05-.32,46.46-.64,92.93-1.16,139.38-2.37,19.42-.51,38.79-2.71,58.19-4,6.64-.46,10.57-2.77,9.92-10.47-1.88-22.19-3.25-44.43-5.08-66.63-1-12-2.51-23.88-3.79-35.82,27.72-51.38,28.69-104.26,8.9-158.31,7.61,3.66,9.23,11.64,11.57,18.22,16.61,46.68,16.58,93-5.71,138.08a40.69,40.69,0,0,0-3.85,22.68q3.77,40.09,8.14,80.14c1.14,10.41,1.14,20-10.69,24.56l-4,.13c-5.82-2.52-11.55-3.36-17.05.83l-20.93.11c-4.62.52-10.59-4-13.29,3.61h0l-2.2.17,0,0c-6.83-5.91-21-6.18-28-.54-33.89.26-67.78.48-101.67.87-3.68,0-7.85-1.59-11,2l-2.47-.21c-2.7-3.38-6.49-2.08-9.84-2.11-14.78-.13-29.56-.22-44.34,0-4.73.08-9.89-1.86-14.17,1.91Z" transform="translate(-82.82 -1288.8)"/><path class="cls-11" d="M2443,2035.05l6,.1c7.91,7.68,17.7,2.24,26.5,3.71,2.94.49,5.59-.41,6.11-4h0c7.48-3.19,4.68-12,10.48-17.92,0,11-.1,21,0,30.9.08,4.8-2.41,6-6.65,6-18.15-.09-36.3-.18-54.45.06-5.57.07-7.8-2-7.41-7.48.27-3.89.1-7.82.12-11.73h0C2430.17,2034.36,2436.47,2039.54,2443,2035.05Z" transform="translate(-82.82 -1288.8)"/><path class="cls-1" d="M2708.11,2047.73c3.11-3.57,7.28-1.94,11-2,33.89-.39,67.78-.61,101.67-.87l28,.54,0,0c1,6.56-1.83,8.61-8.3,8.48-18.06-.34-36.13-.28-54.2,0a13,13,0,0,1-10.17-4.38l-67.61.09C2708.29,2049,2708.2,2048.36,2708.11,2047.73Z" transform="translate(-82.82 -1288.8)"/><path class="cls-1" d="M2864.17,2041.65l20.93-.11c5.81,2.3,11.54,3,17.05-.83l4-.13c2.46.13,4.93.47,7.37.37,4.93-.2,5.82,2.67,5.76,6.74-.05,3.69-1.06,6.1-5.34,6.08-19.38-.05-38.77,0-58.16,0-6.27,0-4.58-4.89-4.93-8.46h0C2855.38,2044.32,2861.13,2048,2864.17,2041.65Z" transform="translate(-82.82 -1288.8)"/><path class="cls-4" d="M2637.29,2047.37c4.28-3.77,9.44-1.83,14.17-1.91,14.78-.27,29.56-.18,44.34,0,3.35,0,7.14-1.27,9.84,2.11.58,5.43-2.48,6.46-7.13,6.42q-27.08-.21-54.18,0C2639.54,2054,2636.81,2052.6,2637.29,2047.37Z" transform="translate(-82.82 -1288.8)"/><path class="cls-11" d="M2708.39,2049.64l67.61-.09c0,4.1-2.83,4.22-5.81,4.22q-28.07,0-56.13-.05C2711.27,2053.72,2708,2054.09,2708.39,2049.64Z" transform="translate(-82.82 -1288.8)"/><path class="cls-10" d="M2906.62,1756.83l-1.63-2Z" transform="translate(-82.82 -1288.8)"/><path class="cls-12" d="M360.42,1863.65c-15.35,21-33.83,38.23-58.13,48.54-60.24,25.54-137.19,12-174-51-19.51-33.41-23.15-69.82-18.8-107.22,3.29-28.36,13.46-54.33,32.13-76.53,24-28.51,55.12-43,91.66-46.23,41.69-3.68,78.81,7.42,110,36.16a29,29,0,0,0,8.53,9,5.82,5.82,0,0,0,.54,1.38c.56.82,1.13,1.63,1.7,2.44L365.14,1697c.61.92,1.21,1.84,1.81,2.76.11.47.23.93.38,1.4l1.8,2.9c.11.43.22.86.35,1.29a2.31,2.31,0,0,0,1.75,2.69l-.05-.06a69.6,69.6,0,0,0,1.85,8.17c10.73,30.39,11.35,61.51,6.79,93C377,1828.6,369.29,1846.34,360.42,1863.65Zm-200.81-85.34A125.53,125.53,0,0,0,171,1834.23c12.86,27.69,32.85,47.28,64.59,51,34.16,4,60.34-10.67,76.72-39.51,26.54-46.74,25.5-95.18-2-140.79-29.23-48.42-98.06-48.2-129.9-1.36C165,1726.12,160.3,1751.67,159.61,1778.31Z" transform="translate(-82.82 -1288.8)"/><path class="cls-10" d="M360.42,1863.65c8.87-17.31,16.58-35.05,19.4-54.5,4.56-31.5,3.94-62.62-6.79-93a69.6,69.6,0,0,1-1.85-8.17c6.75,2.88,7.51,9.93,9.58,15.39,17.31,45.65,15,90.86-4.94,135.15-3.33,7.4-5.32,14.56-4.58,22.52,2.75,29.55,5.36,59.1,8.39,88.62,1.28,12.49.44,14.63-12.32,16.22-14.35,1.78-28.81,3-43.25,3.86-64.91,4-129.91,1.72-194.86,2.41-7.77.08-15.34,2.23-23.23,2.16s-11.27-2.94-10.17-10.78c13.17-.06,26.34,0,39.5-.2,49.42-.7,98.87-.52,148.23-2.62,25.79-1.1,51.78-.65,77.45-5.13,7-1.23,8.88-3.83,8.28-10.3-2.85-31-5.51-62.08-8.22-93.12C360.79,1869.32,360.62,1866.48,360.42,1863.65Z" transform="translate(-82.82 -1288.8)"/><path class="cls-10" d="M351.81,1676.42a29,29,0,0,1-8.53-9q-3.81-41.22-7.63-82.42-2.44-26.43-4.89-52.86-4.23-46.52-8.4-93c8.39-1.47,9.91,3.07,10.54,10.36,4.52,51.7,9.38,103.38,14,155.07C349,1628.38,353.86,1652.22,351.81,1676.42Z" transform="translate(-82.82 -1288.8)"/><path class="cls-10" d="M354.05,1680.24c-.57-.81-1.14-1.62-1.7-2.44Z" transform="translate(-82.82 -1288.8)"/><path class="cls-10" d="M367,1699.75c-.6-.92-1.2-1.84-1.81-2.76C365.75,1697.91,366.35,1698.83,367,1699.75Z" transform="translate(-82.82 -1288.8)"/><path class="cls-10" d="M369.13,1704.05l-1.8-2.9Z" transform="translate(-82.82 -1288.8)"/><path class="cls-10" d="M371.23,1708a2.31,2.31,0,0,1-1.75-2.69Z" transform="translate(-82.82 -1288.8)"/><path class="cls-10" d="M862,2025.79c44.55,3,89.11,5.94,133.65,9,21.76,1.53,21.35,1.73,19-20.63-1.67-15.85-.66-31.84-2.11-47.82-2.12-23.29-1.75-46.79-2.77-70.19-2-46.75-3.86-93.53-6.64-140.24-1.69-28.32-2.71-56.65-4.18-85q-3.6-69.57-6.6-139.18-2-44.07-4.2-88.16c-2.5-47.81-5.8-95.57-6.17-143.46,3.54-.18,5.89.61,6.8,4.85a66.1,66.1,0,0,1,1.85,15.78c-1.11,36.23,2.78,72.29,4.78,108.37,1.64,29.37,1.53,58.78,3.55,88.15,3.1,45.23,3.87,90.62,7,135.85,2,28.67,2.23,57.36,3.81,86q4.23,76.43,7,152.94c1.68,43.53,6.49,86.94,5.94,130.59-.08,7,5.69,15,.67,20.53-4.87,5.36-13.56.92-20.45,2.13a37.36,37.36,0,0,0-6,2.11c-1.2-.64-2.37-1.75-3.62-1.86-17.14-1.52-34.29-3.12-51.47-4.18-4.3-.27-9.19-1.94-13.12,1.76l-2.14-.11c-11.77-5.81-24.81-2.3-36.88-4.93s-22.15-.64-31.16,7.55c-7.23-1.13-12,4.28-18.55,6.29l5.34,3.94-12.49.42c-3.61-4.35-8.58-1.93-12.94-2.59-7.85-1.17-16.17,2.53-23.69-2.25C819.68,2046.89,841.91,2039.11,862,2025.79Z" transform="translate(-82.82 -1288.8)"/><path class="cls-1" d="M858.55,2045.74c9-8.19,19.1-10.18,31.16-7.55s25.11-.88,36.88,4.93c1.09,7.86-1.44,11.26-10.24,10.89-16.88-.71-33.81-.42-50.71-.1C859.32,2054,857.36,2051.56,858.55,2045.74Z" transform="translate(-82.82 -1288.8)"/><path class="cls-1" d="M928.73,2043.23c3.93-3.7,8.82-2,13.12-1.76,17.18,1.06,34.33,2.66,51.47,4.18,1.25.11,2.42,1.22,3.62,1.86.76,6.56-3.64,6.34-8.12,6.33-16.6-.07-33.23-.5-49.81.16C930.44,2054.34,927.32,2051.45,928.73,2043.23Z" transform="translate(-82.82 -1288.8)"/><path class="cls-3" d="M1000.08,2051.6c5.92-2.52,9.42-2.78,14.14,0C1009.53,2054.49,1006,2054.11,1000.08,2051.6Z" transform="translate(-82.82 -1288.8)"/><path class="cls-10" d="M779.26,2056l2-2.25,4.34-1.56c1,5.13,5.14,3.71,8.37,3.82,10.44.37,20.88.59,31.31.87-7.17,5.49-15.78,5-24.07,5.69-5.93.52-12.07-1-17.75,1.88v0c.19-3.25-.08-6.25-4-7.24A2.25,2.25,0,0,0,779.26,2056Z" transform="translate(-82.82 -1288.8)"/><path class="cls-13" d="M825.3,2056.88c-10.43-.28-20.87-.5-31.31-.87-3.23-.11-7.35,1.31-8.37-3.82l10.6-.64c7.52,4.78,15.84,1.08,23.69,2.25,4.36.66,9.33-1.76,12.94,2.59Z" transform="translate(-82.82 -1288.8)"/><path class="cls-10" d="M439.57,2043.21c34.31-3,68.8-.53,103.05-2.7,29.44-1.87,58.85,0,88.17-2,14.49-1,28.94-1.88,43.44-1.67,7.38.1,8-5.32,8.45-9.89,1.83-19.66,3.08-39.38,4.54-59.09,59.46-38.85,72.71-96.7,67.11-162.47-1.37-16.07-6.84-31-11-46.36,5.67,1.88,6.42,7.32,7.84,11.8,3.91,12.36,7.22,24.92,10.77,37.4,2.74,15.44,5.22,30.91,4.37,46.69-2.16,1.81-2,4.33-2.25,6.81-4.61,44.9-21.08,83.37-59.62,109.89-4.28,2.95-6.44,6.8-6.77,12.43-1,17.26-2.74,34.49-4.2,51.72-.56,6.59-2.75,10.56-10.55,12-12.76,2.39-25.49.57-38.15,1.91l-2.37-.11c-3.1-2.1-6.58-2.32-10.16-2.16l-60,2.65H501c4.36,5.17,8.38,3.53,11.8,3.85,12.53,1.17,25.29-2.25,37.68,1.9l-48.73.36c-.87,0-1.75,0-2.62,0l-48.94-.2c9-4.8,18.64-1.16,27.94-2.11,6.64-.67,13.53,1,20-2.51-19.43-.8-38.8,1.62-58.14-.15Q439.76,2047.24,439.57,2043.21Z" transform="translate(-82.82 -1288.8)"/><path class="cls-1" d="M1853.83,2056.4a2.1,2.1,0,0,1,1.86.11l-1.64,1.58A3.49,3.49,0,0,1,1853.83,2056.4Z" transform="translate(-82.82 -1288.8)"/><path class="cls-2" d="M439.94,2051.27c19.34,1.77,38.71-.65,58.14.15-6.43,3.55-13.32,1.84-20,2.51-9.3,1-18.95-2.69-27.94,2.11l-10.61.05C439.7,2054.48,439.82,2052.88,439.94,2051.27Z" transform="translate(-82.82 -1288.8)"/><path class="cls-11" d="M779.5,2057.25c3.91,1,4.18,4,4,7.24C778.53,2064.07,779.17,2060.58,779.5,2057.25Z" transform="translate(-82.82 -1288.8)"/><path class="cls-1" d="M3135.05,2058.17c6.88-3.33,14.13-2.16,21.32-1.73-5.83,7.7-14.13,2.09-21,3.89Z" transform="translate(-82.82 -1288.8)"/><path class="cls-1" d="M1725.26,2072.84c2.45-2.8,5.64-1.79,8.65-1.68C1732.05,2077,1728.88,2076.07,1725.26,2072.84Z" transform="translate(-82.82 -1288.8)"/><path class="cls-1" d="M1746.62,2070.71c1.09-1.58,2.64-1.87,4.41-1.56C1750.4,2072.06,1749.48,2074.14,1746.62,2070.71Z" transform="translate(-82.82 -1288.8)"/><path class="cls-13" d="M1456.32,1537.14c7.57-.42,8.82,4.23,8.4,10.34-3,42.46-2.33,85.07-4.66,127.52s-2.55,85-4.4,127.5c-1.84,42.16-3,84.3-4.2,126.46-.91,31.12-3.19,62.23-4,93.39-.21,7.7-2.13,15.39-1.85,23.24.15,4.35,1.1,7.74,6,8.67a1.94,1.94,0,0,1,.07,1.42c-6.64,3.9-5.66,10.76-6,16.76-.52,9.18-.31,18.42-.15,27.63.14,7.68-3.06,8.95-10.57,8.55-14.24-.78-28.34-6.16-42.79-1.94-3.57-.39-7.14-.8-10.71-1.2-6.89-4.14-14-3.33-21.18-.93l-6.54-1.58c-1-6-5.77-4.28-9.3-4.22-17,.31-33.84-3.32-50.65-3.53-24.72-.32-49-5.69-73.66-5.16-3.27.08-6.36.39-9.17,2.16-3.48-2.89-7.1-3-10.85-.57l-12.49-.11c-4.59-4.06-9.29-7.55-15.48-2.77l-8.54-.45c-6.26-4.16-12.67-3.37-19.14-.61l-2.13.33a5.17,5.17,0,0,0-2-.22l-15.17-2c-4-4-8.66-2-13.16-1.66l-6-.85c-3.25-6.85-8.1-4-12.79-2.09l-4.29,2.06c-2.09-.45-4.18-.9-6.28-1.33-1.08-6.6-5.45-4.57-9.59-3.83-6.44,1.16-12.79,1.68-14-7.32q66.87,5.08,133.75,10.17c28,2.16,55.91,4.54,83.87,6.7q72.72,5.63,145.46,11.05c14.32,1.05,14.3.72,14.72-13.3,1.65-54.68,3.23-109.36,5-164q3-91.57,6.39-183.15,3.22-92.1,6.49-184.21C1454.88,1548.42,1455.76,1542.78,1456.32,1537.14Z" transform="translate(-82.82 -1288.8)"/><path class="cls-10" d="M1059,2070.85c1.25,9,7.6,8.48,14,7.32,4.14-.74,8.51-2.77,9.59,3.83-8,4.79-15.63,1-23.28-1-5.52-1.43-4.55-6.14-4.44-10.26Z" transform="translate(-82.82 -1288.8)"/><path class="cls-10" d="M1093.16,2081.27c4.69-1.86,9.54-4.76,12.79,2.09l-12.81.27C1093.15,2082.84,1093.15,2082.05,1093.16,2081.27Z" transform="translate(-82.82 -1288.8)"/><path class="cls-2" d="M1112,2084.21c4.5-.33,9.21-2.31,13.16,1.66C1120.38,2088.41,1115.69,2090.3,1112,2084.21Z" transform="translate(-82.82 -1288.8)"/><path class="cls-2" d="M1093.16,2081.27c0,.78,0,1.57,0,2.36-1.59,2.35-3,2.24-4.27-.3Z" transform="translate(-82.82 -1288.8)"/><path class="cls-10" d="M1593,2073.15c16.8-2.14,33.58-4.47,50.41-6.37,31.65-3.57,63.32-6.93,95-10.28,9.86-1,19.75-1.78,29.62-2.66,4.13,4.34,12.21-.11,15.19,6.81-5.85,4.4-13.08,2.62-19.41,3.34-38.57,4.44-77.36,7-115.9,11.66-14.51,1.77-29.23,2.16-43.58,5.31C1598,2082.35,1594,2079.78,1593,2073.15Z" transform="translate(-82.82 -1288.8)"/><path class="cls-13" d="M1783.21,2060.65c-3-6.92-11.06-2.47-15.19-6.81l29.86-2.26c11.48,4.77,23.52.92,35.22,2.28,5.4.62,11.29-2.14,16.19,2.2l-40,.5c-6-.18-12.06-.47-18.09-.46-3.3,0-7.57-1.21-8,4.33Z" transform="translate(-82.82 -1288.8)"/><path class="cls-10" d="M1783.21,2060.43c.43-5.54,4.7-4.32,8-4.33,6,0,12.06.28,18.09.46C1801.49,2063.84,1791.84,2058.67,1783.21,2060.43Z" transform="translate(-82.82 -1288.8)"/><path class="cls-1" d="M1187.57,2091.54l12.48.12-.12,2.72c-6.72,2.32-13.53,5.54-19.28-1.93Z" transform="translate(-82.82 -1288.8)"/><path class="cls-2" d="M1144.41,2087.71c6.47-2.76,12.88-3.55,19.14.61l-4.25,2C1154.42,2089,1148.69,2092.41,1144.41,2087.71Z" transform="translate(-82.82 -1288.8)"/><path class="cls-2" d="M1187.57,2091.54l-6.92.91-8.5-.17-.06-3.51C1178.28,2084,1183,2087.48,1187.57,2091.54Z" transform="translate(-82.82 -1288.8)"/><path class="cls-1" d="M1172.09,2088.77l.06,3.51c-4.74,2.44-9.52,5.11-12.85-1.92l4.25-2Z" transform="translate(-82.82 -1288.8)"/><path class="cls-2" d="M1199.93,2094.38l.12-2.72c3.76-2.47,7.38-2.33,10.86.56-.09.7-.16,1.4-.23,2.1l-6.52.26Z" transform="translate(-82.82 -1288.8)"/><path class="cls-1" d="M1204.16,2094.58l6.52-.26c.08,1.43.15,2.87.23,4.3C1207.83,2098.67,1204.56,2099,1204.16,2094.58Z" transform="translate(-82.82 -1288.8)"/><path class="cls-1" d="M1285.12,2102.78c.36-4,3.14-4.2,6.18-3.89q22.67,2.3,45.34,4.64c-4.08,7-10.77,3.56-16.06,3.26C1308.72,2106.12,1296.94,2104.19,1285.12,2102.78Z" transform="translate(-82.82 -1288.8)"/><path class="cls-1" d="M1353.69,2103q3.27.78,6.54,1.59c0,.9-.09,1.79-.13,2.69-6.24,1.43-13.36,7.27-17.19-3.42Z" transform="translate(-82.82 -1288.8)"/><path class="cls-2" d="M1360.1,2107.25c0-.9.08-1.79.13-2.69,7.18-2.41,14.29-3.22,21.18.91l-2.13,2.28Z" transform="translate(-82.82 -1288.8)"/><path class="cls-1" d="M1379.28,2107.75l2.13-2.28c3.57.41,7.14.82,10.71,1.21,0,.9,0,1.8,0,2.69C1387.46,2111.91,1382.82,2114.17,1379.28,2107.75Z" transform="translate(-82.82 -1288.8)"/><path class="cls-1" d="M1407,2109.7c2.42-.33,4.82-.62,6.47,1.79C1410.25,2114.85,1408.15,2114.06,1407,2109.7Z" transform="translate(-82.82 -1288.8)"/><path class="cls-14" d="M796.22,2051.55l-10.6.64-4.34,1.56-2.41-.3c-5.84-6.86-5.89-15.26-6.3-23.57-.07-3.65-.42-7.23-2.2-10.52-1.23-7.19,1.09-11.41,9.08-11.66,3.5-.1,7-1.12,10.45-1.9,36.42-8.23,53.43-27.2,57.6-64.21a652.7,652.7,0,0,0,4-73.29c0-81,.12-162.1-.2-243.14,0-8.77,2.13-11.92,11.18-11.3a265.91,265.91,0,0,0,34.11,0c8.35-.49,10.86,2,10.78,10.6-.43,44.43-.2,88.86-.2,133.29,0,47.64.47,95.27-.22,142.9-.4,28-2.9,55.92-14,82.36-7.05,16.78-17.93,30.47-31,42.76C841.91,2039.11,819.68,2046.89,796.22,2051.55Z" transform="translate(-82.82 -1288.8)"/><path class="cls-11" d="M772.57,2029.88c.41,8.31.46,16.71,6.3,23.57-18.5.1-37,0-55.47.44-6.67.16-8.58-2.31-8.45-8.68.34-16.28.11-32.57-2-48.88,0,15.68-.51,31.37.2,47,.39,8.75-2.75,10.88-10.94,10.59-16.34-.58-32.72-.14-49.08-.3-3.18,0-7.56,1.67-8.35-3.88,12.66-1.34,25.39.48,38.15-1.91,7.8-1.47,10-5.44,10.55-12,1.46-17.23,3.2-34.46,4.2-51.72.33-5.63,2.49-9.48,6.77-12.43,38.54-26.52,55-65,59.62-109.89.25-2.48.09-5,2.25-6.81,4,22.86,9.66,45.38,2,68.93-9,27.65-15.91,55.93-24.36,83.75-2.39,7.85-.54,10.57,7.21,10.21-2.56,8.73.95,12.55,9.79,12.19C764.87,2029.88,768.72,2029.93,772.57,2029.88Z" transform="translate(-82.82 -1288.8)"/><path class="cls-4" d="M572.24,2050.13l60-2.65c3.58-.16,7.06.06,10.16,2.16-.39,3.81-3,4.24-6.13,4.23q-29.32-.06-58.66,0C575,2053.83,572.61,2053.45,572.24,2050.13Z" transform="translate(-82.82 -1288.8)"/><path class="cls-14" d="M913.44,1528.78c-.15,19.06-15.61,33.88-35.15,33.7-18.84-.18-35-16.43-34.53-34.66a36,36,0,0,1,35.63-35.09C898.46,1492.63,913.61,1508.68,913.44,1528.78Z" transform="translate(-82.82 -1288.8)"/><path class="cls-11" d="M723.35,1725.33c3.57-39.08,7-78.16,10.85-117.22.57-5.93-3-13.11,4.14-17.56l19.83,183.78c-7.24-12.7-12.84-26.33-21.66-38.12-3.49-4.66-6.26-10.3-13.17-10.89Z" transform="translate(-82.82 -1288.8)"/><path class="cls-2" d="M723.34,1725.32c6.91.59,9.68,6.23,13.17,10.89,8.82,11.79,14.42,25.42,21.66,38.12a148.54,148.54,0,0,1,3.8,33.94c-3.55-12.48-6.86-25-10.77-37.4-1.42-4.48-2.17-9.92-7.84-11.8Z" transform="translate(-82.82 -1288.8)"/><path class="cls-10" d="M772.57,2029.88c-3.85,0-7.7,0-11.55.16-8.84.36-12.35-3.46-9.79-12.19,6.48-.8,12.82.21,19.14,1.51C772.15,2022.65,772.5,2026.23,772.57,2029.88Z" transform="translate(-82.82 -1288.8)"/><path class="cls-15" d="M1190.92,1947.66c-2.45,7.63,2.17,9.54,11.22,10.43,54.44,5.37,108.81,11.55,163.23,17.2,8,.84,11.25,4,9.53,12.11-1,4.85-1.35,9.85-1.91,14.79-2.85,25.23.57,21-23.74,18.66-49.49-4.82-98.89-10.71-148.33-16.09q-32.33-3.51-64.67-6.75c-4.74-.47-6.93-2.14-6.35-7.39,5.21-46.59,10.21-93.2,15.32-139.8q8.07-73.59,16.2-147.19c4.53-41.66,9.09-83.32,13.23-125,.86-8.64,4.83-10,12.47-9.15q106.44,11.89,213,23.19c6.47.68,7.66,3.41,6.94,8.89-1.38,10.56-3,21.12-3.69,31.74-.41,6.1-3.27,6.8-8.25,6.24q-42.88-4.86-85.8-9.48c-24.73-2.67-49.49-5-74.19-8-7-.83-9,1.39-9.74,8.34-3.75,37.1-8,74.14-12.22,111.19-1.59,14.12-1.73,14.45,12.28,16.05,48,5.51,96,10.93,144.06,15.91,7.27.75,8.89,3.34,8,9.94-1.28,9.14-2.15,18.36-2.62,27.58-.36,7-3.42,9-10.22,8.19-37.06-4.18-74.17-8-111.26-12-13.78-1.48-27.56-2.89-41.3-4.64-4.49-.58-5.4,1.32-5.81,5.18q-6.24,58.26-12.71,116.5C1192.75,1931.38,1192,1938.44,1190.92,1947.66Z" transform="translate(-82.82 -1288.8)"/><path class="cls-12" d="M1731.62,1824.65c0,53-.18,106,.18,159,.06,8.35-2.11,11.39-10.68,10.77a197.24,197.24,0,0,0-29.87,0c-8.94.72-10.57-3-10.51-11,.34-42.34.16-84.68.16-127,0-63.69-.18-127.37.2-191,.06-9.05-2.71-11.33-11.44-11.19-31.67.49-63.35,0-95,.34-7.36.08-10.31-1.88-9.7-9.52a120.47,120.47,0,0,0,0-22.39c-1-9.49,3.19-10.94,11.56-10.87,44.49.38,89,.18,133.47.18,42,0,84,.48,126-.31,11.4-.22,14.31,3.43,13.11,13.78a87.85,87.85,0,0,0,0,19.18c.87,8.37-2.71,10.06-10.39,10-32-.39-64.07.18-96.1-.38-9.13-.16-11.17,2.78-11.1,11.44C1731.81,1718.63,1731.62,1771.64,1731.62,1824.65Z" transform="translate(-82.82 -1288.8)"/><path class="cls-9" d="M3128.12,1731.33a136.43,136.43,0,0,1,54.23,11.34c5.19,2.22,7,4.9,4.49,10.61-3.16,7.11-3.37,17-8.5,21.4-6.44,5.56-13.61-3.77-20.79-5.66-12.94-3.42-25.8-5.06-39-3.47-15.33,1.84-27.38,11.9-30.23,24.73-3.29,14.84,2.36,26.54,17.29,35.54,9.78,5.9,20.41,10,31,14.13a160.64,160.64,0,0,1,28.54,14.3c25,16.09,35.51,39.19,31.59,68.33-3.73,27.71-20.43,45.62-46.2,54.83-35.53,12.71-70.54,9.06-104.93-5.1-5.5-2.26-7.68-5.17-5-11.4,3.21-7.47,3.15-18.11,8.5-22.43,6.61-5.35,14,4.41,21.41,6.78,19.34,6.19,38.67,9.48,58.6,3.87,12.49-3.51,21.74-11.28,24.61-24.19,3.12-14,.1-26.87-11.63-36.57-10-8.3-21.92-13-33.9-17.57-13.36-5-26.13-11.12-37.46-20-36.25-28.3-33.07-81.15,6.16-105.38C3093.13,1735.4,3110.81,1731.55,3128.12,1731.33Z" transform="translate(-82.82 -1288.8)"/><path class="cls-6" d="M2060.53,1891.51c0-40.87.18-81.74-.16-122.61-.06-7.46,2.05-10,9.56-9.54a201.92,201.92,0,0,0,27.72,0c8.3-.6,10.94,2,10.86,10.6-.43,43-.2,86-.2,129,0,38.38-.25,76.77.19,115.15.1,8.54-2.49,11.26-10.84,10.66a208.47,208.47,0,0,0-27.72,0c-7.51.48-9.62-2.15-9.56-9.57C2060.7,1974,2060.53,1932.74,2060.53,1891.51Z" transform="translate(-82.82 -1288.8)"/><path class="cls-10" d="M2891.37,1731.61q-5.35-6.36-10.72-12.71-3.78-41.22-7.57-82.45c-1.5-16.22-3.26-32.41-4.6-48.63-2.47-30-4.74-60-7-90.06a69,69,0,0,1,.22-7.46c5.78-.33,8,2.3,8.49,8.16,3.42,43.67,6.88,87.34,10.83,131C2884.08,1663.52,2887.88,1697.55,2891.37,1731.61Z" transform="translate(-82.82 -1288.8)"/><path class="cls-2" d="M2633.14,2034.87c-.11,3.56-.21,7.12-.32,10.68-6.45-1.54-3.17-7-4.28-10.67Z" transform="translate(-82.82 -1288.8)"/><path class="cls-14" d="M2365.66,1892.3q31.5-51.16,63-102.33c17.54-28.43,35.23-56.77,52.57-85.33,3.43-5.64,6.59-7.71,13.57-5.68,12.87,3.72,26.14,6,40.63,9.25-15.62,23.25-30.42,45.35-45.29,67.4-36,53.33-72.1,106.57-107.83,160.07-5,7.42-9.41,11.3-18.91,7.8-7.91-2.91-16.55-3.92-24.95-5.32-6.56-1.1-9.51-4.6-10.43-11.12q-12.9-91.63-26.14-183.24c-3.84-26.67-7.76-53.33-12-79.93-1.23-7.64.14-10.84,8.49-8.74,11.36,2.84,22.76,5.53,34.25,7.75,5,1,7.23,2.91,7.82,8.15,7.61,68,15.46,136,23.1,204.06.62,5.56.08,11.26.08,16.89Z" transform="translate(-82.82 -1288.8)"/><path class="cls-9" d="M537.68,1834.49c.75-11.61-.89-25.4,1.85-39.22,7.39-37.18,38.07-66.13,73.29-68.24,39.61-2.38,70.59,19,83.32,57.54,11.43,34.64,10.33,69.17-2.1,103.25-14.19,38.92-51.07,59.77-91.57,52.4-37.42-6.81-64.55-40.34-64.78-80.1C537.64,1852.3,537.68,1844.48,537.68,1834.49Z" transform="translate(-82.82 -1288.8)"/><path class="cls-10" d="M723.8,1564.74c6.36-.61,9.1,2,8.48,8.6-1.74,18.64-3.12,37.31-4.85,55.94-1.83,19.67-4.6,39.28-5.58,59-.54,11-2.56,21.78-2.65,32.76q-4.23-4.3-8.45-8.6c2.77-28.79,5.69-57.58,8.28-86.39C720.85,1605.62,722.23,1585.17,723.8,1564.74Z" transform="translate(-82.82 -1288.8)"/><path class="cls-2" d="M2481.57,2034.81c-.52,3.64-3.17,4.54-6.11,4-8.8-1.47-18.59,4-26.5-3.71Z" transform="translate(-82.82 -1288.8)"/><path class="cls-2" d="M2443,2035.05c-6.51,4.49-12.81-.69-19.23-.42C2430.29,2028.5,2436.62,2032.54,2443,2035.05Z" transform="translate(-82.82 -1288.8)"/><path class="cls-2" d="M2398.12,2028.71c-3.75,2.32-7.37,2.94-10.65-.83C2391.24,2025.43,2394.86,2024.8,2398.12,2028.71Z" transform="translate(-82.82 -1288.8)"/><path class="cls-2" d="M2383.49,2027.63c-3.67.66-7.48,1.74-9.33-3.09C2377.78,2024,2381.71,2022.6,2383.49,2027.63Z" transform="translate(-82.82 -1288.8)"/><path class="cls-2" d="M2410.94,2030.86c-3.74,2.62-6.89,2.57-9-2C2405.18,2028.31,2408.61,2027.1,2410.94,2030.86Z" transform="translate(-82.82 -1288.8)"/><path class="cls-2" d="M2421.56,2034.69a4.54,4.54,0,0,1-4.73-3.69C2420,2030.17,2421.41,2031.62,2421.56,2034.69Z" transform="translate(-82.82 -1288.8)"/><path class="cls-7" d="M2697,1828.52c.72-26.39,5.85-53.37,23.26-76.49,32.87-43.67,96.92-42.26,127,3.29,28.22,42.68,28.71,111.43-5.24,153.35-31.66,39.08-90.57,38.67-120.87-1.46C2704,1884.46,2697.25,1858.42,2697,1828.52Z" transform="translate(-82.82 -1288.8)"/><path class="cls-2" d="M2848.69,2045.42l-28-.54C2827.67,2039.24,2841.86,2039.51,2848.69,2045.42Z" transform="translate(-82.82 -1288.8)"/><path class="cls-2" d="M2902.15,2040.71c-5.51,3.86-11.24,3.13-17.05.83C2890.6,2037.35,2896.33,2038.19,2902.15,2040.71Z" transform="translate(-82.82 -1288.8)"/><path class="cls-2" d="M2864.17,2041.65c-3,6.32-8.79,2.67-13.29,3.61C2853.58,2037.69,2859.55,2042.17,2864.17,2041.65Z" transform="translate(-82.82 -1288.8)"/><path class="cls-7" d="M159.61,1778.31c.69-26.64,5.39-52.19,20.74-74.77,31.84-46.84,100.67-47.06,129.9,1.36,27.54,45.61,28.58,94,2,140.79-16.38,28.84-42.56,43.48-76.72,39.51-31.74-3.69-51.73-23.28-64.59-51A125.53,125.53,0,0,1,159.61,1778.31Z" transform="translate(-82.82 -1288.8)"/></svg>