<svg id="Capa_1" data-name="Capa 1" xmlns="http://www.w3.org/2000/svg" viewBox="0 0 3298.61 432.15"><defs><style>.cls-1{fill:#fdfdfd;}.cls-2{fill:#e1726a;}.cls-3{fill:#3c3a3a;}.cls-4{fill:#f08b62;}.cls-5{fill:#f8cdb5;}.cls-6{fill:#e9e0d0;}.cls-7{fill:#e4af58;}.cls-8{fill:#c8b58e;}.cls-9{fill:#3d3b3b;}.cls-10{fill:#a7a5a4;}.cls-11{fill:#aeaead;}.cls-12{fill:#a2a1a1;}.cls-13{fill:#d1d3d3;}.cls-14{fill:#fbe1d3;}.cls-15{fill:#db5758;}.cls-16{fill:#707fa3;}</style></defs><title>titlebottom</title><path class="cls-1" d="M3361.65,1863.17h0c6.38-3.15,5.32-6.55.36-10.1l-.15-11.36c3.19-4.72,2.06-10.1,1.18-14.87-2.22-12.2-2.92-24,2.57-35.6.87-1.84,2.59-4,0-6,.12-1.18.23-2.37.34-3.55,2.24-.78,4.45-1.56,1.58-4.24l.29-5.56c5-5.81,5-18,.09-24-.11-1.84-.22-3.67-.32-5.51,3-3,1.83-4.87-1.6-6.19-.12-1.18-.25-2.36-.37-3.54,1.74-4.47.79-7.89-3.85-9.87l-3.95-7.71c.06-2.86-.09-5.58-3.91-5.85l-2-1a1.23,1.23,0,0,0-.75-.91c-.38-1.29-.76-2.59-1.13-3.88,2.85-2.73.59-3.46-1.65-4.19l-.24-11.41c2.49-5,3.77-9.86-1.64-13.93l-.27-3.6c2.47-5,3.87-9.89-1.71-13.92q-.28-6.66-.59-13.32c3-3.39,3.5-6.23-1.71-7.82,1.25-16-1.29-31.72-2-47.58-.39-8.66-3.42-11.65-11.52-10.47.5-7.31-4.67-6.46-9.18-6.22-36.47,1.94-72.93,4.1-109.42,5.78-7.36.34-6.26,4.85-6.27,9.27q0,48.15,0,96.29l-6-.36c1.27-5.17-1.58-6.67-6.07-7.66q-84.42-18.54-168.75-37.49c-6.81-1.54-8.36-1-7.22,6.45,2.82,18.22,4.65,36.6,6.92,54.91,5.8,46.57,11.67,93.14,17.33,139.73.47,3.88,1.64,6.07,5.67,6.21-.11,7.57,3,11.28,11,12.93,15.75,3.24,31.73,4.62,47.57,7,9.41,1.38,19.82,6,28.42,1.15,6.67-3.76,12.93-4.52,22.64-4.82-16.88-1.06-17-1.11-11.33-14.84,15.68-37.88,31.18-75.83,47.44-113.46,3.75-8.67,3.72-19.3,12.2-25.75l2,141.7c0,2.58.06,5.17.14,7.76.08,2.43,1.75,3.22,3.82,3.55.35,5.07-.69,11.24,7.81,9.85l39-.19c1.34,1.73,3.26,1.81,5.22,1.81h49.19c2.25,0,4.58.14,5.94-2.24l7.51-.15c5.4.17,10.83.74,16.19.38,4-.27,9.24,2.59,11.67-3.39l5.58-.25C3360.73,1867.9,3361.29,1865.72,3361.65,1863.17ZM1309.74,1618.12c3.34-4.31,2-6.57-3.15-7.17-5.82-11.74-12-16.35-20.15-14.31-9.79,2.45-13.07,9.67-12.8,19.08-16.26-2.82-32.57-5.43-48.77-8.6-4.93-1-6.39.16-6.34,5,.09,8.43-.26,16.86-.42,25.29l-9.21.18c.35-4.57-1.79-6.26-6.32-6.23-14.19.11-28.33-1.5-42.45-2.34-15.77-.93-31.56-1.1-47.32-2-23.15-1.29-46.31-2.26-69.47-3.4-4-.19-6.09,1.36-5.93,5.59.31,8.39-3,16.5-2,25,.34,3,.05,6-3.93,6.54l-2-56.58c3.11-2.44,1.34-3.38-1.25-4.07-.23-10.7-.52-21.4-.65-32.1,0-4.21-.69-7.83-5.57-8.91-.16-2.5-1.68-3.47-4-3.57-1.24-3.63-4.28-3.33-7.23-3.35q-95.81-.73-191.62-1.58c-5.36-.06-7.18,1.54-7.69,7q-9.72,104-19.88,207.93c-1.72-.11-3-.6-3.5-2.59q-4.8-20.24-9.72-40.45-20.62-84.63-41.22-169.28c-1.5-6.19-4.24-10-11.18-9.27-.65-5.5-3.85-5.2-8.34-4.49-32.45,5.09-65,9.47-97.4,15-12.84,2.17-26.17,2-38.45,7.23l-6-.32c1.35-8.27-4.07-7.72-9.54-7.47q-44,2-88.07,3.82c-9.12.25-18.4-2.42-27.32,1.54-7.43.09-14.9.73-22.28.12-8.42-.7-11,2-10.81,10.72,1.12,45.81,1.59,91.64,2.28,137.46-4.37-9.94-6.73-21-13.63-29.54a27.38,27.38,0,0,1-5.82-15c-3.57-36.47-6.93-73-9.83-109.52-.74-9.26-4.48-13.72-13.73-13.45-5.58-4.06-12-2.12-17.77-1.62q-47.29,4.07-94.74,5.25c-9.5.25-12.58,2.17-12.49,12.34.71,81.56-.55,163.12,2,244.66l-5,0q-.16-56.42-.34-112.82c.54-1.12,1.54-2.23,1.55-3.35.1-20.55.08-41.09.11-61.64,0-2.43-.49-4.47-3.16-5.25-.87-5.14,1.07-12.44-8.43-10.92-1.27-3.45-2.76-7.33-7.27-6.17-9.27,2.37-18.68,1.2-28,1.91-40.81,3.11-81.6,6.55-122.43,9.37-6.56.45-8.13,2.58-8.07,8.65.17,16.48,1.15,32.91,1.8,49.37,1.41,35.54.86,71.16,2.64,106.68.74,14.84,1.15,29.67,1.56,44.51.42,15.39,5.82,20.7,20.88,20.62,11.94-.06,23.87-1.07,35.76-1.5,34.22-1.24,68.44-2.19,102.63-4.15,7.58-.43,13.26-2.3,16-9.8l3.68.2c.73,14,2,14.84,16.19,15.31,33.39,1.12,66.68-1.91,100-2.08a213.93,213.93,0,0,0,28.94-2.17c6.28-.89,14.09-2.44,12.5-11.51-3-16.89-3.84-34-4.34-51a36.43,36.43,0,0,1,10.13-26.42q.28,26.23.54,52.47c0,3.93-.56,8.15,5.36,8.18,1.07,11,3.08,13.18,15.7,12.84,36.09-1,72.18-2.52,108.27-3.61,13.29-.4,13.24-1.1,15-14.24,1.51-11.52-1.26-24.37,10.91-33.33,15.44-11.36,21.77-28.3,23.89-46.9.28-2.45.6-4.52,3.55-4.84q1.19,8.14,2.35,16.29c4.83,33.87,9.56,67.75,14.67,101.58.49,3.22-1.19,8.38,4.55,9.41.83,9.45,4.55,14.17,15.09,10.82,6.72-2.13,13.92-2.75,20.93-3.93Q728.07,1842.2,794,1831.1c2.76-.47,7.13-1.58,7.67-3.34,3-9.82,10.75-7.56,17.53-7.57q103.69-.24,207.38-.25c8.31,0,13.46-2.21,12.42-11.48-.85-7.64,3.4-8.86,9.47-7.93q41.17,6.29,82.34,12.63,29.68,4.53,59.38,8.9c5.51.8,9.63-.67,10.39-7.1,3.29-27.88,6.25-55.8,10.15-83.6,1.76-12.62,1-25.69,5.77-37.85-.8,40.8-1.42,81.61-2.65,122.4-.16,5.25,1.65,6.91,5.71,8.09-1.25,6.32,2.31,8.43,7.76,9.87,9.57,2.54,19.37.81,28.94,2.28,26.31,4,52.8,3.56,79.28,3.45,4.63,0,7.23-1.88,7.59-6.78.24-3.19,1.17-6.33,1.7-9.51q8.88-53.36,17.73-106.73c3.19,3.21,2,7.31,2,11.05q.23,58.57.15,117.16c0,5.59.52,9.8,7.65,8.72-1.56,9.58,2.79,12,12,11.74,33.94-1.09,67.91-1.48,101.87-2.12,6.47-.12,13-.06,19.43-.27,15.82-.51,17.67-2.34,18.65-18l4.56.68c-.75,9.14,4,11.57,12.44,11.53,50-.23,99.9-.06,149.84-.14,18,0,18.82,2.68,17.83-17.53-.25-5-.78-9.83,6.8-10,5.38-.13,6.76-5,6.67-9.21-.66-33,2.65-66.13-1.92-99-2-14.64-5.48-29.45-20.83-37.08-22.36-26.28-55.32-28.63-83.63-5.95-3.27-3.22-6.67-6.18-11.72-5.83-.11-3.48-.59-6.35-5.34-6a83.21,83.21,0,0,1-13.58,0c-5.14-.45-6.59,1.28-6.37,6.49.39,9,1.83,18,.35,27-11.29-.07-22.59-.17-33.88-.19-19.45,0-19.45,0-19.24,19.24-2.32.22-2.93-1.6-4.29-3-4-4-4.58-10.75-10.66-12.93l-1.79-2.11c-.92-11.55-1.76-23.1-2.79-34.63-2.53-28.46-5.16-56.9-7.73-85.35-.53-5.9-3.55-8.73-9.57-8,.86-6.86-2.91-8.06-8.75-7.73q-55.45,3.15-110.91,5.94c-6.56.32-6.92,4.25-6.91,9.18,0,17.11-.06,34.23-.1,51.34l-52.63-10.28Zm579.42,214c-.92,8.65,3.48,11.25,11.56,11.27,40.43.1,80.83-.65,121.16-3.67,21.55-1.61,23.54-4,19.86-23.94a10.26,10.26,0,0,1-.54-1.86c.23-16.78-4.12-32.92,2.15-50.47,10.29-28.82,8.1-58-11.65-83.68a14.64,14.64,0,0,1-2.84-7.09c-1.54-15.39-2.78-30.82-4.1-46.23-2-23.12-3.86-46.25-6-69.35-.6-6.37-4-10.22-11.13-8.72-1.66-5.65-6.33-4.74-10.43-4.52-35.17,1.89-70.33,4.24-105.53,5.57-8.58.32-10.93,2.5-10.77,11,1,51.17,1.52,102.34,1.92,153.52.29,36.31.12,72.62.18,108.94C1883,1827.26,1881.7,1832.65,1889.16,1832.09Zm927,27.57,0,.85h29c0-.29,0-.57-.05-.85Z" transform="translate(-72.93 -1470.03)"/><path class="cls-2" d="M2231.42,1850.14c-5.43,0-6.09-2.36-4.76-7.39,3.68-14,9.37-27.43,10.91-42l-.06.13c2.61-2.15,2.18-5.08,2-7.94l-.07.15c2.12-.66,1.48-2.48,1.66-4-.57-5.44-1-10.89-1.71-16.32-1.89-15.34-3.86-30.66-5.8-46l-.69-12-7.53-67.5-3.77-33.55c-4.93-44.31-9.76-88.64-14.92-132.93-.77-6.6.46-9.06,7.75-9.11,42.09-.29,84.18-1.06,126.27-1.74,4.76-.08,9.42-.47,9.47,6.3,1,42.7,3.5,85.33,5.9,128,2,36.19,2.38,72.47,4.56,108.65.9,14.88,1,29.75,1.84,44.61q2.46,46,5.54,92c.49,7.42-1.38,10.72-9.53,9.87-11.58-1.21-23.44-.43-34.81-2.49s-23.31.84-34.35-3.81c10.12-10.19,16.71-22.31,18.94-36.49,1.46-9.24,2.82-18.61,2.89-27.93.31-43.14.15-86.27.16-129.41,0-20.08,0-19.64-19.82-20.06-8.15-.18-9.59,2.85-9.5,10.09.35,27.24.28,54.49.1,81.73-.15,24.29.76,48.59-1.47,72.87-1.93,21.16-8.07,36.65-33.61,40.47-2.89.43-7.88-.19-7.44,5.5Zm82.37-255.59c-.17-11-6.78-17.8-17.3-17.69s-18.48,8.35-18.07,18.52c.42,10.59,7.42,17,18.27,16.85S2314,1605.5,2313.79,1594.55Z" transform="translate(-72.93 -1470.03)"/><path class="cls-3" d="M2390.87,1877.68c-4.12-.42-6.82-.73-6-6.85,7.3-57.23,14.09-114.53,21.06-171.8,4.24-34.74,8.69-69.46,12.67-104.24.68-5.93,2-8.34,8.66-8,54.14,2.59,108.3,4.78,162.45,7.14,3.3.15,7.61-1,7.89,4.56l-.3,3.66c-1.58,38.45-3.29,76.89-4.71,115.34q-3.11,83.46-5.72,166.94c-.21,7.26-3,8.65-9.31,8-15.46-1.49-30.95-2.62-46.44-3.83Q2461,1883.12,2390.87,1877.68Zm179.94-239.44c2.08-6,.34-9.65-7.7-10.43-31.29-3-62.51-6.78-93.8-9.84-17.62-1.73-17.82-1.38-19.78,16.32-7.32,66.32-14.46,132.66-21.9,199-.53,4.73.37,6.17,5.14,6.66,34.81,3.65,69.57,7.76,104.39,11.34,16.2,1.67,16,1.26,17.69-14.83.71-6.6-1.56-8-7.75-8.62-27.09-2.65-54.1-6.09-81.18-8.87-5.46-.56-7.21-2.32-6.57-7.79,2.56-21.87,5.05-43.76,7-65.69.62-7,4-7.55,9.58-6.9,20,2.33,40,4.14,59.9,6.75,18.25,2.39,18,2.7,20.35-15.39.66-5.12-.52-6.72-5.72-7.22-23.55-2.29-47-5.24-70.58-7.47-6.65-.63-10-2.07-9-9.82,2.45-19,4.25-38,6.15-57,.35-3.54,1.24-5.2,5.31-4.73,24.15,2.78,48.35,5.11,72.47,8.06C2569.64,1653.56,2569.59,1653.94,2570.81,1638.24Z" transform="translate(-72.93 -1470.03)"/><path class="cls-3" d="M791.52,1765.53q10-104,19.88-207.93c.51-5.46,2.33-7.06,7.69-7q95.8,1,191.62,1.58c2.95,0,6-.28,7.23,3.35,0,1.26,0,2.52.07,3.79-.32,15.17.91,30.28,1.59,45.42,1.86,41.56,3.18,83.16,4.71,124.74.14,3.88.31,7.74,2.13,11.3-.39,13.23-.76,26.45-1.21,39.67-.09,2.64-.41,5.22,2.38,6.78,0,2.27,0,4.54,0,6.81,0,14.63,1.75,12.73-13,12.87q-94.92.91-189.84,1.72-16.55.15-33.1.35c-2.84-4.87-3.23-10.34-3.81-15.75C790.5,1784.17,791.16,1774.87,791.52,1765.53ZM894,1587.32c-18.92.45-14.26-3-20.36,14.75q-29.16,84.93-58,170c-5.67,16.66-5.63,16.25,11.58,16.82,7.46.25,10.86-2.09,13-9.24,4.76-16.13,10.63-31.93,15.57-48,1.51-4.9,3.7-6.67,8.83-6.59,19.14.26,38.3.34,57.44,0,5.61-.11,8,1.9,9.66,7,4.33,13.56,9.07,27,13.66,40.48,5.57,16.4,5.58,16,23.17,16.43,8.64.22,9.55-2,6.84-9.83C955,1720.32,935,1661.49,914.9,1602.69,909.65,1587.33,909.67,1587.32,894,1587.32Z" transform="translate(-72.93 -1470.03)"/><path class="cls-4" d="M787.92,1793.23c.58,5.41,1,10.88,3.81,15.75,2.33,8.18-3.1,9.84-9.2,10.84-21,3.45-42,6.69-62.91,10.32-29.18,5.06-58.31,10.41-87.45,15.63l-6,.6c-5.75-1-4.07-6.2-4.56-9.42-5.11-33.83-9.84-67.71-14.67-101.58q-1.15-8.14-2.35-16.29c-2.24-15.62-3.35-31.41-7.31-46.76q-5.12-37.89-10.24-75.78a83.26,83.26,0,0,0-3.55-21.6c0-4.51.49-9.09-1.73-13.31,12.28-5.19,25.61-5.06,38.45-7.23,32.38-5.48,65-9.86,97.4-15,4.49-.71,7.69-1,8.34,4.49,13.08,53.83,25.83,107.75,39.36,161.48C772.64,1734.73,778.82,1764.36,787.92,1793.23Zm-133.2-9.62c3.9-.52,6.16-.8,8.4-1.12,25.33-3.64,50.66-7.24,76-11,4.27-.64,10.89,1.09,9.2-7.32-1.33-6.58,0-14.46-11.83-12.24-19.4,3.63-39.12,5.45-58.62,8.62-5.45.88-7.68-.11-8.43-5.62-3.85-28.22-7.92-56.41-11.88-84.61-2.75-19.55-5.57-39.09-8.1-58.66-.8-6.17-3.3-8-9.58-6.86-15.31,2.81-15.2,2.51-12.59,18.31,1.9,11.5,3.32,23.07,5,34.6,5.75,39.71,11.58,79.42,17.16,119.15C650,1781.42,650.88,1784.55,654.72,1783.61Z" transform="translate(-72.93 -1470.03)"/><path class="cls-5" d="M2806.53,1606.09c0,1.92-.06,3.85-.1,5.77-1.27,31.65-2.76,63.29-3.75,95-1,33-.79,66-2.63,99-1,17.14-1.11,34.25-1.56,51.38-.1,3.93.42,7.55-5.55,8.06-18.64,1.62-37.25,3.69-55.84,5.78-21.79,2.46-43.55,5.13-65.33,7.7l-5.68.13c-6.37-6.15-4.34-14.67-5.46-22-7.61-50-14.47-100.13-21.52-150.23-4.5-31.91-8.79-63.84-13.43-95.73-.8-5.47,1.18-6.74,6.13-6.86,55.73-1.33,111.46-2.19,167.21-1.79C2802.08,1602.26,2805.87,1601.23,2806.53,1606.09ZM2740.34,1750c0-26.92.21-53.84-.15-80.75-.1-6.88,2-8.9,8.81-8.7,15.24.45,30.51-.27,45.74.29,9.59.34,7.17-6,7.29-11.06.12-5.26,1.78-11-7.52-10.91-44.45.36-88.91.3-133.36,0-9.75,0-6.7,6.62-6.86,11.41s-2.24,10.77,6.76,10.48c14.59-.47,29.23.39,43.79-.32,8.46-.41,10.09,2.66,10,10.46-.33,50.26-.17,100.53-.17,150.79,0,16.45,0,16,16.57,16.4,7.37.15,9.34-2.13,9.23-9.35C2740.09,1802.48,2740.33,1776.21,2740.34,1750Z" transform="translate(-72.93 -1470.03)"/><path class="cls-6" d="M249,1800.64l5,0q.13,12.77.24,25.54c-2.77,7.5-8.45,9.37-16,9.8-34.19,2-68.41,2.91-102.63,4.15-11.89.43-23.82,1.44-35.76,1.5-15.06.08-20.46-5.23-20.88-20.62-.41-14.84-.82-29.67-1.56-44.51-1.78-35.52-1.23-71.14-2.64-106.68-.65-16.46-1.63-32.89-1.8-49.37-.06-6.07,1.51-8.2,8.07-8.65,40.83-2.82,81.62-6.26,122.43-9.37,9.32-.71,18.73.46,28-1.91,4.51-1.16,6,2.72,7.27,6.16-4,17.31-2.25,34.92-1.39,52.26,2.59,51.87.51,103.74,1.62,155.6.12,5.42-2.37,7.47-7.57,7.72-8.07.38-16.11,1.47-24.18,1.78-37.23,1.44-74.47,2.66-111.69,4.11-3,.12-8.31-1.92-8.08,3.74.17,4.56,4.41,5.89,8.71,5.8,1.94,0,3.89.07,5.84,0q50.93-1.9,101.84-3.86c12-.48,23.89-1.36,35.84-1.93,6.42-.31,9.22-3.26,9-9.87C248.32,1814.9,248.81,1807.76,249,1800.64ZM127.52,1656c-2.49-2.11-1.94-4.28-1.7-6,1.23-8.32-3.13-9.29-10.14-9.48-8.24-.23-7.63,4.38-7.61,9.87.17,43.78.37,87.57.11,131.35,0,7.56,1.9,10.17,9.75,10,7.23-.16,10.4-1.54,10-9.65-.65-15.31-.19-30.66-.19-47.24,29.38,28.52,65.14,12.65,75.71-10.3,9.74-21.16,10.48-42.6-.69-63.56-11.71-22-37-29.42-59.29-18.26C137.09,1646,132.65,1651.47,127.52,1656Z" transform="translate(-72.93 -1470.03)"/><path class="cls-6" d="M1027.61,1787.23c-2.79-1.56-2.47-4.14-2.38-6.78.45-13.22.82-26.44,1.21-39.67,4.47-2,2.65-6.09,3-9.37,2.54-23.5,1.88-47.09,2-70.65,4-.57,4.27-3.54,3.93-6.54-1-8.48,2.35-16.59,2-25-.16-4.23,2-5.78,5.93-5.59,23.16,1.14,46.32,2.11,69.47,3.4,15.76.88,31.55,1,47.32,2,14.12.84,28.26,2.45,42.45,2.34,4.53,0,6.67,1.66,6.32,6.23-.08,1.8-.16,3.61-.23,5.42-2.78,13.59-2.57,27.49-4.18,41.18-4.59,39-10.32,78-14.67,117-1,8.54-3.8,10.45-11.29,9.23-22.27-3.63-44.58-7-66.85-10.67C1083.71,1795.25,1055.82,1790.19,1027.61,1787.23Zm81.87-7.9c1.07-.07,4.62-.35,8.18-.53,8.34-.41,10.13-4.73,8-12.27-2.37-8.63-8.28-3.84-12.46-3.32-22.92,2.81-42.18-11.53-46-34.72-3.68-22.51,11.24-46,32.07-49.83,11.24-2.08,22.05.46,32,5.73,4.76,2.52,7.13,1.56,8.77-3.07,1.37-3.91,6-8.14-.81-11.38-22-10.55-44.44-13.21-65.89.39s-29.56,35.17-26.89,59.6C1050,1761.34,1072.73,1779,1109.48,1779.33Z" transform="translate(-72.93 -1470.03)"/><path class="cls-7" d="M2998.91,1699.62c-.38,1.27-.77,2.53-1.16,3.8-4.05,23.51-8.26,47-12.08,70.54-6.1,37.54-13.42,74.89-18.14,112.65-.45,3.61-1.28,7.84-6.89,7.7-11.66-.28-23.36.25-35-.47-23.51-1.45-47-3.51-70.48-5.32-7.09.11-6.2-4.92-6.11-9.46q1.11-50.93,2.19-101.84c.69-32,1.74-64,1.87-96,0-9.1,3.64-10.13,11-8.76,14.91,2.78,29.89,5.22,44.85,7.79,6.35,13,15.08,15.53,26.85,7.2a11.9,11.9,0,0,1,9.8-2.31c14.95,6.62,31.41,6.34,46.94,10.31C2995.25,1696.11,2998.77,1695.26,2998.91,1699.62ZM2937,1784.23c0-20.08-.26-40.17.15-60.25.14-6.77-1.84-9.6-8.7-8.63a23.06,23.06,0,0,1-6.79,0c-8.33-1.33-10.18,2.37-10.09,10.25.4,36.92.18,73.85.18,110.77,0,17.75,0,17.42,17.36,17.48,6.6,0,8.11-2.28,8-8.39C2936.84,1825,2937,1804.64,2937,1784.23Z" transform="translate(-72.93 -1470.03)"/><path class="cls-7" d="M1310.12,1621.34l52.63,10.28c0,2.57,0,5.14.08,7.71-2.32,13-4.87,26-6.91,39-7.18,45.86-16.63,91.35-22.48,137.43-1.77,14-1.94,14.21-16.15,14.23-32.7,0-65.06-5.46-97.72-6-4.07-1.18-5.88-2.84-5.72-8.09,1.23-40.79,1.85-81.6,2.66-122.4q.79-28,1.6-56.09c.16-8.43.51-16.86.42-25.29,0-4.85,1.41-6,6.34-5,16.2,3.17,32.51,5.78,48.77,8.6,6.93,13,14.83,15.19,26.83,7.2C1303.62,1620.81,1306.53,1619.6,1310.12,1621.34ZM1277,1719v54.5c0,15.74,0,15.21,16,15.83,8.22.31,9.46-2.79,9.4-10-.31-37.3-.14-74.6-.14-111.9,0-16.89,0-16.48-17-16.78-7.25-.13-8.47,2.58-8.35,9C1277.23,1679.47,1277,1699.26,1277,1719Z" transform="translate(-72.93 -1470.03)"/><path class="cls-5" d="M1889.17,1832.09c-7.47.56-6.18-4.83-6.19-9.2-.06-36.32.11-72.63-.18-108.94-.4-51.18-1-102.35-1.92-153.52-.16-8.53,2.19-10.71,10.77-11,35.2-1.33,70.36-3.68,105.53-5.57,4.1-.22,8.77-1.13,10.43,4.52.13,7.42-.21,14.9.45,22.28,2.86,32,6,64,9.07,96.06-3.46-2.41-6.85-4.9-10.37-7.19-30.85-20.08-75.7-12.85-97,16.65-17.6,24.39-19.69,51.86-10,79.65,10.49,30,33.8,45.16,65.45,45.33,26.06.14,46-11.27,61.52-31.48,1.38,16.74,2.7,33.49,4.18,50.22.48,5.43-.91,7.88-7.15,8.55-23.54,2.52-47.18,2.17-70.76,3.25-19.44.89-38.94.42-58.41.56Z" transform="translate(-72.93 -1470.03)"/><path class="cls-5" d="M3203.75,1682.36q0-48.15,0-96.3c0-4.42-1.09-8.93,6.27-9.27,36.49-1.68,72.95-3.84,109.42-5.78,4.51-.24,9.68-1.09,9.18,6.21.15,2-.36,4.12,1.58,5.58.22,7.11.07,14.26.73,21.33,2.82,29.83,6.73,59.57,7.49,89.57-31.29-28.27-79.38-22-102.64,4.19-16.72,18.81-20.17,41.45-18.4,65.4,2.82,38.29,31.81,64.85,70.11,65,25.28.08,44.58-11.32,60.34-30.07q2.7,25.5,5.42,51c.46,4.3-1.87,5.77-5.67,6-8.38.62-16.75,1.68-25.14,1.88-36.29.87-72.59,1.5-108.88,2.21h-4c-2.07-.33-3.74-1.12-3.82-3.55-.08-2.59-.1-5.18-.14-7.76l-2-141.69Z" transform="translate(-72.93 -1470.03)"/><path class="cls-5" d="M254.23,1826.15q-.12-12.76-.24-25.54c-2.58-81.55-1.32-163.11-2-244.67-.09-10.17,3-12.09,12.49-12.34q47.42-1.23,94.74-5.25c5.81-.5,12.19-2.44,17.77,1.62,0,2,.05,3.92.07,5.88.77,9.61,1.36,19.24,2.33,28.84,2.92,28.77,6.32,57.49,7.44,86.42-3.15-2.26-6.25-4.61-9.47-6.76-34.22-22.82-82.95-11.26-102.67,24.78-9.12,16.66-10.83,34.82-8.86,53.62,4.32,41,38.95,68.15,79.34,62.58,21.47-3,38.17-13.15,51.25-30,2,15,3.58,30.07,4.14,45.23.44,12.07,0,13.21-12.31,13.46-24.56.52-49.05,2.79-73.66,2.18-16.17-.4-32.36.21-48.55.37l-3.79-.3-4.32.08Z" transform="translate(-72.93 -1470.03)"/><path class="cls-5" d="M1362.83,1639.33c0-2.57,0-5.14-.08-7.71,0-17.11.14-34.23.1-51.34,0-4.93.35-8.86,6.91-9.18q55.46-2.74,110.91-5.94c5.84-.33,9.61.87,8.75,7.73.91,12.84,1.68,25.69,2.76,38.51,2.18,25.63,4.53,51.25,6.82,76.87-3.44-2.43-6.81-5-10.33-7.25-30-19.6-73.88-13.21-95.71,15.13-17.37,22.54-20.47,48.6-12.94,75.63,9.25,33.23,33.6,50.81,68.13,50.86,25.73,0,45.15-11.56,60.49-31.3,1.36,16.41,2.69,32.83,4.11,49.23.48,5.52-.28,8.77-7.36,9.29-27.45,2-54.9,3.38-82.41,3.45q-25.32.06-50.62.2c-7.13,1.08-7.67-3.13-7.65-8.72q.13-58.59-.15-117.16c0-3.74,1.19-7.84-2-11.05,2.75-22.32,2-44.76,2-67.17C1364.52,1646,1365.74,1642.28,1362.83,1639.33Zm69.36,13.66c8.59-.84,16.09,3,21.32-2.7,11.42-12.53,22.09-25.72,34.46-40.28-10,0-17.93,0-25.84,0a6,6,0,0,0-5.48,3.26C1448.91,1625.85,1441.16,1638.42,1432.19,1653Z" transform="translate(-72.93 -1470.03)"/><path class="cls-2" d="M3045.67,1844.14c-4-.14-5.2-2.33-5.67-6.21-5.66-46.59-11.53-93.16-17.33-139.73-2.27-18.31-4.1-36.69-6.92-54.91-1.14-7.41.41-8,7.22-6.45q84.3,19.11,168.75,37.49c4.49,1,7.34,2.49,6.07,7.66a25.61,25.61,0,0,0-2.61,4c-22.5,53.92-46.08,107.4-67.09,161.94-1.85,4.78-3.92,7.33-9.83,6.74C3093.89,1852.24,3069.85,1847.7,3045.67,1844.14Zm24.34-58.53c-2-34.28-7.56-66-10.34-98.13-1.91-22-1.6-21.82-22-26.07-6.16-1.29-7.06,0-6.11,6.16,6.28,40.91,12.13,81.89,18.07,122.85,2.5,17.24,2.57,16.75,18.74,20.69,6.11,1.49,8.78-.35,11.69-4.91,6.12-9.55,12.58-18.89,18.92-28.3q27.45-40.73,54.88-81.47c1.51-2.26,4.73-4.45,2.59-7.6-3.82-5.62-23.78-4.73-27.44,1.12-7.39,11.81-14.66,23.71-22,35.57Z" transform="translate(-72.93 -1470.03)"/><path class="cls-8" d="M1528.84,1845.54l-4.57-.67c0-1.69.09-3.38.14-5.07q0-24.54.1-49.07c0-2.51,0-5,0-7.54,9.54-17.79,7.41-36,1.89-54.28l-.13-10c-.21-19.25-.21-19.27,19.24-19.24,11.29,0,22.59.12,33.88.19q.21,50.58.41,101.18c.06,19,0,18.57,19.1,19.06,8.27.21,9.48-3,9.39-10.12-.34-27.57-.16-55.14-.11-82.72,0-10.76,3-20.43,11.11-28l18.17.27,36.78,0c6.9,8.58,8.17,18.81,8.23,29.24.17,25.57.07,51.14.08,76.71,0,13.91,0,13.91,13.36,14.93.23,4.82-.35,9.63,1.19,14.44,2.41,7.56.34,11-8.67,11C1635.22,1845.39,1582,1845.55,1528.84,1845.54Z" transform="translate(-72.93 -1470.03)"/><path class="cls-9" d="M2091.63,1612.27c9-2,18-1.62,27.07-.35v92.4c10.44-15.21,22.65-23.27,38.33-26.34,19.09-3.75,35.77,1.39,51.17,12.35l9.31,9.6,4.71,7.24q3.86,9.81,7.73,19.64c.12,1.92.11,3.86.39,5.75,5.46,36.77-.7,69.26-33.73,91.92A37,37,0,0,0,2192,1826c-24.6,11.58-57.83,7.24-74.82-19.41-.19-.31-1.1-.16-2.47-.32,0,2.58.11,5.08,0,7.57-.79,16.22,2.58,14.05-15.68,14.61-6.49.2-8-2-8-8.29C2091.46,1750.86,2091.5,1681.56,2091.63,1612.27Zm27,141.55c0,6.66-.11,11.2,0,15.74a41.14,41.14,0,0,0,31.66,39.4c18.88,4.63,37.66-2.66,46.25-19.86,11.15-22.31,12.36-45.73.92-68.29-14.63-28.86-53.08-30.17-71.09-3.17C2118.53,1729.46,2118.06,1742.54,2118.65,1753.82Z" transform="translate(-72.93 -1470.03)"/><path class="cls-9" d="M450.78,1559.2c8.92-4,18.2-1.29,27.32-1.54v90.69c30.88-29.43,57.56-33.12,88-13l11.43,11.79,2,1.8q1.13,1.89,2.27,3.77,3.07,7.73,6.17,15.45c.35,1.87.68,3.74,1,5.61,7.31,37,1.14,76.15-34.84,97.6a14.43,14.43,0,0,0-2.83.67c-23.61,10.86-57,8.22-74.72-19.72-.2-.31-1.08-.19-2.5-.38,0,4.9-.22,9.7.06,14.47.35,6.06-1.7,9.28-8.29,8.54a35.32,35.32,0,0,0-7.76,0c-6.09.66-7.89-2-7.48-7.86.57-8.39.48-16.83.47-25.25Q451,1650.53,450.78,1559.2Zm113.13,140.24c0-3.89.3-7.8,0-11.65-2.15-23.8-19.2-42-40.1-43-22.62-1.08-41.52,13.94-44.85,37.11-1.55,10.81-.79,22-.63,33,.28,20.2,14.64,37.44,33.64,40.86,21,3.78,40.69-7.48,47.84-27.68A69.07,69.07,0,0,0,563.91,1699.44Z" transform="translate(-72.93 -1470.03)"/><path class="cls-8" d="M2091.63,1612.27c-.13,69.29-.17,138.59-.54,207.88,0,6.3,1.48,8.49,8,8.29,18.26-.56,14.89,1.61,15.68-14.61.12-2.49,0-5,0-7.57,1.37.16,2.28,0,2.47.32,17,26.65,50.22,31,74.82,19.41a37,37,0,0,1,4.57-1.51c.33,9.35-3,18.42-2.07,27.85.42,4.24-2.11,6.14-6,7.41-4.13,1.33-8.23,1.38-12.42,1.39-33.2.08-66.42-.36-99.59,1.92a19.75,19.75,0,0,0-8.36,2c-3.91-2-5.94-4.44-6-9.52-.27-32-1.12-64-1.67-96-.78-44.93-1.2-89.86-2.4-134.77-.25-9.21,2.74-11.65,11.35-11.19C2076.78,1614,2084.22,1612.77,2091.63,1612.27Z" transform="translate(-72.93 -1470.03)"/><path class="cls-8" d="M450.78,1559.2q.2,91.33.37,182.66c0,8.42.1,16.86-.47,25.25-.41,5.9,1.39,8.52,7.48,7.86a35.32,35.32,0,0,1,7.76,0c6.59.74,8.64-2.48,8.29-8.54-.28-4.77-.06-9.57-.06-14.47,1.42.19,2.3.07,2.5.38,17.72,27.94,51.11,30.58,74.72,19.72a14.5,14.5,0,0,1,2.82-.67c4.76,8.46-1.87,16.84-.09,25.43,1.57,7.63-2.67,9.89-10.09,10-37.56.4-75.11,1.27-112.66,2l-4.09.4c-5.92,0-5.33-4.25-5.36-8.18q-.22-26.24-.53-52.47c0-13.69,1.84-27.43-1.4-41-.69-45.82-1.16-91.65-2.28-137.46-.22-8.72,2.39-11.42,10.81-10.72C435.88,1559.93,443.35,1559.29,450.78,1559.2Z" transform="translate(-72.93 -1470.03)"/><path class="cls-9" d="M1695.89,1820.36c-13.36-1-13.35-1-13.36-14.93,0-25.57.09-51.14-.08-76.71-.06-10.43-1.33-20.66-8.23-29.24l-5.55-5.77c-14.2-12.32-35.78-9.89-49.4,5.55-8.14,7.58-11.09,17.25-11.11,28-.05,27.58-.23,55.15.11,82.72.09,7.14-1.12,10.33-9.39,10.12-19.08-.49-19,0-19.1-19.06q-.15-50.6-.41-101.18c1.48-9,0-18-.35-27-.22-5.21,1.23-6.94,6.37-6.49a83.21,83.21,0,0,0,13.58,0c4.75-.35,5.23,2.52,5.34,6v19.87l11.72-14c28.31-22.68,61.27-20.33,83.63,5.95,4.94,9.81,9.3,19.71,10.26,30.94,2.78,32.61.48,65.27,1.35,97.89.15,5.67-2.44,7.46-7.64,7.14A74.34,74.34,0,0,0,1695.89,1820.36Z" transform="translate(-72.93 -1470.03)"/><path class="cls-8" d="M566.1,1635.37c-30.44-20.14-57.12-16.45-88,13v-90.69q44-1.9,88.07-3.82c5.47-.25,10.89-.8,9.54,7.47-2.53,12.32-2,25-4.15,37.3S572.56,1623.83,566.1,1635.37Z" transform="translate(-72.93 -1470.03)"/><path class="cls-8" d="M2208.2,1690.33c-15.4-11-32.08-16.1-51.17-12.35-15.68,3.07-27.89,11.13-38.33,26.34v-92.4q44.63-1.9,89.24-3.8c4.14-.17,9-1.07,8.15,5.87-.65,4.1-1.52,8.18-1.91,12.31C2212.12,1647.63,2210.18,1669,2208.2,1690.33Z" transform="translate(-72.93 -1470.03)"/><path class="cls-10" d="M2289.34,1853.1c11,4.65,22.92,1.74,34.35,3.81s23.23,1.28,34.81,2.49c8.15.85,10-2.45,9.53-9.87q-3.09-46-5.54-92c-.79-14.86-.94-29.73-1.84-44.61-2.18-36.18-2.52-72.46-4.56-108.65-2.4-42.63-4.88-85.26-5.9-128,8.31-1.79,11.67,1.06,11.58,10-.51,51.76,5,103.28,6.6,155,1.2,38,2.75,76.16,5.34,114.17,1.95,28.71,3.82,57.39,3.89,86.18,0,6.09,1.44,12.18,1.57,18.28.21,9.74-3.39,13.58-12.64,12.06-21.1-3.46-42.53-2.4-63.67-5.3-10.88-1.49-19.7,4.49-28.47,9.88-.62.06-1.23.1-1.84.13a21,21,0,0,0-10.45.78c-7.63,2.22-12.74.39-13.13-8.56C2262.94,1865,2277.2,1861.73,2289.34,1853.1Z" transform="translate(-72.93 -1470.03)"/><path class="cls-11" d="M1218.11,1637.42q-.79,28-1.61,56.09c-4.81,12.16-4,25.23-5.77,37.85-3.9,27.8-6.86,55.72-10.15,83.6-.76,6.43-4.88,7.9-10.39,7.1q-29.7-4.36-59.38-8.9-41.18-6.27-82.34-12.63c-6.07-.93-10.32.29-9.47,7.93,1,9.27-4.11,11.48-12.42,11.48q-103.69-.12-207.38.25c-6.78,0-14.49-2.25-17.53,7.57-.54,1.76-4.91,2.87-7.67,3.34q-65.91,11.2-131.87,22.15c-7,1.18-14.21,1.8-20.93,3.93-10.54,3.35-14.26-1.37-15.08-10.82l6-.59c.52,5.31,4.35,6.63,8.37,5.4,5.38-1.66,10.88-1.4,16.27-2.33,40.59-7,81.24-13.75,121.79-21,6.21-1.11,15,.05,18-5.34,4.84-8.66,11.65-8,19-8q97.83-.06,195.65,0a109,109,0,0,0,15.38-1.49c5.42-.78,7.16-2.71,7-8-.23-6.71,3.21-12.27,10.12-11.26,33.75,4.9,67.39,10.52,101.06,16,13,2.11,26,4.67,39,6.5,4.48.62,10.37,1.83,11.28-5.57,2-16.6,3.95-33.22,6-49.83,2.36-19.47,5.32-38.89,7-58.42,1.48-17,5.08-33.83,4.62-51-.08-3.32,1.33-7.56-4.06-8.38.07-1.81.15-3.62.23-5.42Z" transform="translate(-72.93 -1470.03)"/><path class="cls-12" d="M2390.87,1877.68q70.11,5.46,140.21,10.94c15.49,1.21,31,2.34,46.44,3.83,6.34.61,9.1-.78,9.31-8q2.48-83.49,5.72-166.94c1.42-38.45,3.13-76.89,4.71-115.34,4.81.38,6.61,3.06,6.62,7.77.08,38.82-.66,77.6-3.58,116.35-1,13-2,26.4.9,39.5q0,15.38,0,30.76c-2.56.85-3.38,2.82-3.29,5.28,1,27-3.67,54-1.65,81,0,1.85.09,3.69.14,5.54-1.87,13.08-9.31,14.66-21.09,12.1-10.5-2.29-21.64-1.7-32.49-2.37-3.89-.24-7.73-.18-11.18,2-19.9-3.74-40.25-2.73-60.23-5.62-.65-.1-1.47,1.06-2.22,1.64h-.86l-.86,0c-9.93-4.81-20.85-1.8-31.24-3.89s-21.19-2-31.83-2.25C2395.92,1889.79,2390.85,1886.8,2390.87,1877.68Z" transform="translate(-72.93 -1470.03)"/><path class="cls-10" d="M1695.89,1820.36a74.34,74.34,0,0,1,7.74-.27c5.2.32,7.79-1.47,7.64-7.14-.87-32.62,1.43-65.28-1.35-97.89-1-11.23-5.32-21.13-10.26-30.94,15.35,7.63,18.79,22.44,20.83,37.08,4.57,32.85,1.26,66,1.92,99,.09,4.23-1.29,9.08-6.67,9.21-7.58.18-7,5-6.8,10,1,20.21.16,17.51-17.83,17.53-49.94.08-99.89-.09-149.84.14-8.44,0-13.19-2.39-12.44-11.53,53.2,0,106.39-.15,159.58.22,9,.06,11.08-3.4,8.67-11C1695.54,1830,1696.12,1825.18,1695.89,1820.36Z" transform="translate(-72.93 -1470.03)"/><path class="cls-10" d="M3132.71,1865.18c-8.6,4.85-19,.23-28.42-1.15-15.84-2.34-31.82-3.72-47.57-7-8-1.65-11.16-5.36-11-12.93,24.18,3.56,48.22,8.1,72.59,10.5,5.91.59,8-2,9.83-6.74,21-54.54,44.59-108,67.09-161.94a25.61,25.61,0,0,1,2.61-4l6,.37-.09,24c-8.48,6.44-8.45,17.07-12.2,25.74-16.26,37.63-31.76,75.58-47.44,113.46" transform="translate(-72.93 -1470.03)"/><path class="cls-10" d="M249,1800.64c-.16,7.12-.65,14.26-.37,21.36.26,6.61-2.54,9.56-9,9.87-11.95.57-23.88,1.45-35.84,1.93q-50.91,2-101.84,3.86c-1.95.07-3.9,0-5.84,0-4.3.09-8.54-1.24-8.71-5.8-.23-5.66,5-3.62,8.08-3.74,37.22-1.45,74.46-2.67,111.69-4.11,8.07-.31,16.11-1.4,24.18-1.78,5.2-.25,7.69-2.3,7.57-7.72-1.11-51.86,1-103.73-1.62-155.6-.86-17.34-2.57-35,1.39-52.26,9.5-1.51,7.56,5.79,8.43,10.93-1.55,22.05-.41,44.13-.61,66.2a4.47,4.47,0,0,0,2.11,4Q248.8,1744.24,249,1800.64Z" transform="translate(-72.93 -1470.03)"/><path class="cls-10" d="M1362.83,1639.33c2.91,3,1.69,6.69,1.7,10.08,0,22.41.78,44.85-2,67.17q-8.86,53.37-17.73,106.73c-.53,3.18-1.46,6.32-1.7,9.51-.36,4.9-3,6.76-7.59,6.78-26.48.11-53,.59-79.28-3.45-9.57-1.47-19.37.26-28.94-2.28-5.45-1.44-9-3.55-7.75-9.87,32.66.54,65,6,97.72,6,14.21,0,14.38-.28,16.15-14.23,5.85-46.08,15.3-91.57,22.48-137.43C1358,1665.3,1360.51,1652.33,1362.83,1639.33Z" transform="translate(-72.93 -1470.03)"/><path class="cls-11" d="M2017.13,1666.69c-3.05-32-6.21-64-9.07-96.06-.66-7.38-.32-14.86-.45-22.28,7.16-1.5,10.53,2.35,11.13,8.72,2.16,23.1,4,46.23,6,69.35,1.32,15.41,2.56,30.84,4.1,46.23a14.64,14.64,0,0,0,2.84,7.09c19.75,25.72,21.94,54.86,11.65,83.68-6.27,17.55-1.92,33.69-2.15,50.47a10.26,10.26,0,0,0,.54,1.86c3.68,19.9,1.69,22.33-19.86,23.94-40.33,3-80.73,3.77-121.16,3.67-8.08,0-12.48-2.62-11.56-11.27l5.51.13c-.4,7,4.79,5.44,8.73,5.58,39.18,1.38,78.26-3,117.44-2,3.15.08,6.33-1.62,9.48-1.59,6.06.07,7-3.39,6.52-8.18q-1.74-19.21-3.47-38.42c-.43-4.82-1.6-9.88.87-14.32,8.92-16,9.5-33.48,8.17-50.94-.59-7.78.54-16.88-7.12-22.78C2031.35,1687.4,2024.81,1676.73,2017.13,1666.69Z" transform="translate(-72.93 -1470.03)"/><path class="cls-10" d="M2068.13,1865a19.75,19.75,0,0,1,8.36-2c33.17-2.28,66.39-1.84,99.59-1.92,4.19,0,8.29-.06,12.42-1.39,3.93-1.27,6.46-3.17,6-7.41-.95-9.43,2.4-18.5,2.07-27.85,33-22.66,39.19-55.15,33.73-91.92-.28-1.89-.27-3.83-.39-5.75l3.66,0c1.94,15.33,3.91,30.65,5.8,46,.67,5.43,1.14,10.88,1.71,16.33-1.65.86-2,2.28-1.66,4l.07-.15c-3.24,2-2.32,5-2,7.94l.06-.13c-8.68,12.3-18.14,23.9-29.35,34.06-3.43,3.1-1.65,8-2.06,12.1-.55,5.44-.4,10.87-1.47,16.35-1.24,6.37-4.85,8.73-10.56,9.2-2.89.24-5.82.07-8.73.12q-49.43.89-98.85,1.81c-2.53,0-5.28-.49-7,2.19-.57.05-1.15.07-1.73.07C2073.29,1873.87,2066.63,1872.83,2068.13,1865Z" transform="translate(-72.93 -1470.03)"/><path class="cls-10" d="M1526.25,1718.92q.07,5,.13,10c-2.45,18-1.93,36.17-1.89,54.29,0,2.51,0,5,0,7.55-9.17,16.33-3.19,32.7-.1,49.06-.05,1.69-.09,3.38-.14,5.07-1,15.65-2.83,17.48-18.65,18-6.47.21-13,.15-19.43.27-34,.64-67.93,1-101.87,2.12-9.17.29-13.52-2.16-12-11.74q25.31-.1,50.62-.2c27.51-.07,55-1.42,82.41-3.45,7.08-.52,7.84-3.77,7.36-9.29-1.42-16.4-2.75-32.82-4.11-49.23,14.29-28.89,15.56-58,1.7-87.47l1-.85c6.08,2.18,6.68,8.93,10.66,12.93C1523.32,1717.32,1523.93,1719.14,1526.25,1718.92Z" transform="translate(-72.93 -1470.03)"/><path class="cls-12" d="M2855.17,1888.52c23.49,1.81,47,3.87,70.48,5.32,11.63.72,23.33.19,35,.47,5.61.14,6.44-4.09,6.89-7.7,4.72-37.76,12-75.11,18.14-112.65,3.82-23.55,8-47,12.08-70.54,6,1.34,9.24,3.35,7.74,11.18-5.4,28.18-9.82,56.54-14.48,84.86-5.13,31.16-10.27,62.32-15.07,93.54-1,6.38-3.89,9.19-10.1,9.18-21.33,0-42.54-1-63.85-2.92-14.78-1.36-30-5.59-45-1Z" transform="translate(-72.93 -1470.03)"/><path class="cls-11" d="M3213.59,1859.33c36.29-.71,72.59-1.34,108.88-2.21,8.39-.2,16.76-1.26,25.14-1.88,3.8-.28,6.13-1.75,5.67-6q-2.75-25.5-5.42-51c2.67-6.22,5.89-12.26,7.91-18.69,7.26-23.13,5.19-45.87-4-68.11,0-1.05.05-2.09.07-3.14l2,1a5.46,5.46,0,0,0,3.91,5.85l3.95,7.71c.47,3.61,1,7.19,3.85,9.87.12,1.18.25,2.36.37,3.54-.52,2.34-.89,4.63,1.6,6.19.1,1.84.21,3.67.32,5.51l-.09,24c-.1,1.86-.19,3.71-.29,5.56-1.81.94-2,2.47-1.58,4.24-.11,1.18-.22,2.37-.34,3.55-12.64,18.07-7.51,37.32-3.72,56.47q.07,5.68.14,11.37c-.12,3.36-.23,6.72-.35,10.09h0c-1.68-.08-3.14.28-3.94,2l-5.59.25c-4.74-.1-9.53-.68-14.2-.16s-10.33-3-13.65,3.17l-7.51.16c-17.36-3.65-34.92-.62-52.36-1.53-2.76-.14-5.85-.81-8,2l-39,.19C3215.9,1866,3212.64,1863.48,3213.59,1859.33Z" transform="translate(-72.93 -1470.03)"/><path class="cls-11" d="M787.92,1793.23c-9.1-28.87-15.28-58.5-22.66-87.81-13.53-53.73-26.28-107.65-39.36-161.48,6.94-.78,9.68,3.08,11.18,9.27q20.48,84.68,41.22,169.28,4.92,20.21,9.72,40.45c.47,2,1.78,2.48,3.5,2.59C791.16,1774.87,790.5,1784.17,787.92,1793.23Z" transform="translate(-72.93 -1470.03)"/><path class="cls-6" d="M420,1707.5c3.24,13.58,1.39,27.32,1.4,41a36.4,36.4,0,0,0-10.14,26.42c.5,17,1.36,34.08,4.34,51,1.59,9.07-6.22,10.62-12.5,11.51a213.93,213.93,0,0,1-28.94,2.17c-33.35.17-66.64,3.2-100,2.08-14.18-.47-15.46-1.32-16.2-15.31l4.32-.07c-1.45,8.29,1.59,11.36,10.42,11.56,36,.8,71.9-2.22,107.87-2.08,2.25,0,4.61.19,6.13-2l3.91-.09c4.51,0,9.09.45,13.51-.19,3.4-.49,8.3-2.2,7.34-6.24-1.91-8.07.68-16.7-3.48-24.35l-.16-9.74c-.27-5.23,1.93-10.73-1.69-15.61q0-3.91.07-7.83c7-9.23,9.38-19.88,9.51-31.2,0-1.29.09-2.59.14-3.88,4.44-10.86,0-21.32-2.21-31.61-1.66-7.7-2.88-16.52-11.38-20.88l.06.05-1.62-2.42-2.16-3.38-1.67-2.41a8.13,8.13,0,0,1-.4-1.27c-.12-6.48.15-13-.44-19.42-3-32.68-6.44-65.33-9.19-98-.58-6.92-2.36-10.52-9.75-9.36,0-2,0-3.92-.07-5.88,9.25-.27,13,4.19,13.73,13.45,2.9,36.54,6.26,73,9.83,109.52a27.38,27.38,0,0,0,5.82,15C413.24,1686.53,415.6,1697.56,420,1707.5Z" transform="translate(-72.93 -1470.03)"/><path class="cls-13" d="M427.26,1809.16l4.09-.4c-.29,7.63,4.79,7.8,10.42,7.79,31.69,0,63.31-2.7,95-2.21,24.63.38,24.72-.15,25.33-25.42.16-6.48,1.56-12.82,6.8-16.42,30-20.62,35.93-69.3,22.44-101.29a4.42,4.42,0,0,0-3.39-3q-3.09-7.73-6.17-15.45c8.84,3.62,10.82,12.63,15.41,19.59,4,15.35,5.07,31.14,7.31,46.76-2.95.32-3.27,2.39-3.55,4.84-2.12,18.6-8.45,35.54-23.89,46.9-12.17,9-9.4,21.81-10.91,33.33-1.72,13.14-1.67,13.84-15,14.24-36.09,1.09-72.18,2.64-108.27,3.61C430.34,1822.34,428.33,1820.17,427.26,1809.16Z" transform="translate(-72.93 -1470.03)"/><path class="cls-12" d="M1031.44,1660.76c-.11,23.56.55,47.15-2,70.65-.36,3.28,1.46,7.37-3,9.37-1.82-3.56-2-7.42-2.13-11.3-1.53-41.58-2.85-83.18-4.71-124.74-.68-15.14-1.91-30.25-1.59-45.42l3.92-.22c4.88,1.08,5.52,4.7,5.57,8.91.13,10.7.42,21.4.65,32.1-.6,1.67-.37,3.08,1.25,4.07Z" transform="translate(-72.93 -1470.03)"/><path class="cls-10" d="M1499,1688.27c-2.28-25.62-4.63-51.24-6.81-76.87-1.08-12.82-1.85-25.67-2.76-38.51,6-.69,9,2.14,9.57,8,2.57,28.45,5.2,56.89,7.73,85.35,1,11.53,1.87,23.08,2.79,34.63l-.71.68Z" transform="translate(-72.93 -1470.03)"/><path class="cls-9" d="M2945.65,1685.12a11.9,11.9,0,0,0-9.8,2.31c-11.77,8.33-20.5,5.83-26.85-7.2-.44-8.92,2.22-16.14,11.69-18.58s15.27,2.41,19.39,10.35C2942.29,1676.24,2948.42,1678.78,2945.65,1685.12Z" transform="translate(-72.93 -1470.03)"/><path class="cls-10" d="M2208.2,1690.33c2-21.35,3.92-42.7,6-64,.39-4.13,1.26-8.21,1.91-12.31l5.53-.15q1.89,16.79,3.77,33.55c-3.34,4.38-3,9.57-3.32,14.65-.85,12.71-1,25.51-4.56,37.89Z" transform="translate(-72.93 -1470.03)"/><path class="cls-9" d="M1310.12,1621.34c-3.59-1.74-6.5-.53-9.65,1.58-12,8-19.9,5.77-26.83-7.2-.27-9.41,3-16.63,12.8-19.08,8.17-2,14.33,2.57,20.15,14.3-.82,3.2-.14,5.77,3.15,7.18Z" transform="translate(-72.93 -1470.03)"/><path class="cls-10" d="M566.1,1635.37c6.46-11.54,3.35-24.54,5.46-36.76s1.62-25,4.15-37.3l6,.32c2.22,4.22,1.74,8.8,1.73,13.31-.56,1.11-1.62,2.23-1.62,3.34.19,23.06-5.69,45.75-4.29,68.88Z" transform="translate(-72.93 -1470.03)"/><path class="cls-13" d="M2601.2,1765.75c-2.88-13.1-1.89-26.45-.9-39.5,2.92-38.75,3.66-77.53,3.58-116.35,0-4.71-1.81-7.39-6.62-7.77l.3-3.66c8.17-.5,10.16,3.66,10.33,11.33.76,35.58-1.29,71.11-2.64,106.62-.54,14.16-1.12,28.35-1.52,42.53C2603.66,1761.47,2604.13,1764.26,2601.2,1765.75Z" transform="translate(-72.93 -1470.03)"/><path class="cls-11" d="M3330.22,1582.8c-1.93-1.46-1.42-3.62-1.57-5.58,8.1-1.17,11.13,1.82,11.52,10.48.71,15.86,3.25,31.63,2,47.58,0,2.74-1.1,5.71,1.71,7.82q.3,6.66.59,13.33-.31,3.1-.61,6.21c-2.73-.46-3.49-2.25-3.67-4.81-1.25-17.87-2.1-35.78-4.15-53.56C3335.21,1597,3337.92,1588.34,3330.22,1582.8Z" transform="translate(-72.93 -1470.03)"/><path class="cls-13" d="M2596.3,1882.82c-2-27.06,2.67-54,1.65-81-.09-2.46.73-4.43,3.29-5.28,2.51,27.14-2.66,54.15-1.45,81.26C2599.9,1880.28,2599,1882.2,2596.3,1882.82Z" transform="translate(-72.93 -1470.03)"/><path class="cls-6" d="M248.63,1687.82a4.47,4.47,0,0,1-2.11-4c.2-22.07-.94-44.15.61-66.2,2.67.78,3.17,2.82,3.16,5.25,0,20.55,0,41.09-.11,61.64C250.17,1685.59,249.17,1686.7,248.63,1687.82Z" transform="translate(-72.93 -1470.03)"/><path class="cls-13" d="M3256.41,1869c2.14-2.77,5.23-2.1,8-2,17.44.91,35-2.12,52.36,1.53-1.36,2.37-3.69,2.23-5.94,2.23h-49.19C3259.67,1870.79,3257.75,1870.71,3256.41,1869Z" transform="translate(-72.93 -1470.03)"/><path class="cls-13" d="M3361.86,1841.71c-3.79-19.15-8.92-38.4,3.72-56.47,2.62,2,.9,4.16,0,6-5.49,11.57-4.79,23.4-2.57,35.6C3363.92,1831.61,3365.05,1837,3361.86,1841.71Z" transform="translate(-72.93 -1470.03)"/><path class="cls-10" d="M1616,1678.17l-11.72,14v-19.87C1609.36,1672,1612.76,1675,1616,1678.17Z" transform="translate(-72.93 -1470.03)"/><path class="cls-13" d="M3324.27,1868.39c3.32-6.15,9-2.65,13.65-3.17s9.46.06,14.2.16c-2.42,6-7.66,3.12-11.66,3.39C3335.1,1869.13,3329.67,1868.56,3324.27,1868.39Z" transform="translate(-72.93 -1470.03)"/><path class="cls-13" d="M3367.79,1771.89l.09-24C3372.8,1753.93,3372.75,1766.08,3367.79,1771.89Z" transform="translate(-72.93 -1470.03)"/><path class="cls-11" d="M3348.09,1687.87l.24,11.41c-.41,1.78-.2,3.3,1.65,4.19l1.12,3.88c-.51,0-1,.06-1.52.12-3.67-2.38-4.85-6.57-7.21-9.9,3.36-2.41,0-7.27,3.53-9.62Z" transform="translate(-72.93 -1470.03)"/><path class="cls-13" d="M3213.59,1859.33c-1,4.15,2.31,6.66,3.85,9.84-8.5,1.39-7.46-4.78-7.81-9.85Z" transform="translate(-72.93 -1470.03)"/><path class="cls-11" d="M3346.18,1670.34c.09,1.2.18,2.4.26,3.6l-.75,10.14c-5.92-3.87-4.15-8.72-1.73-13.65Z" transform="translate(-72.93 -1470.03)"/><path class="cls-13" d="M3345.69,1684.08l.75-10.14c5.42,4.07,4.14,8.93,1.65,13.93l-2.19.08Z" transform="translate(-72.93 -1470.03)"/><path class="cls-13" d="M3346.18,1670.34l-2.22.08c0-2.59-.07-5.19-.11-7.78.21-2.07.41-4.14.62-6.21C3350.05,1660.45,3348.65,1665.33,3346.18,1670.34Z" transform="translate(-72.93 -1470.03)"/><path class="cls-13" d="M3361.65,1863.17c.12-3.37.23-6.73.35-10.09C3367,1856.62,3368,1860,3361.65,1863.17Z" transform="translate(-72.93 -1470.03)"/><path class="cls-13" d="M3365.59,1732.68c-2.85-2.68-3.38-6.26-3.85-9.87C3366.38,1724.79,3367.33,1728.21,3365.59,1732.68Z" transform="translate(-72.93 -1470.03)"/><path class="cls-13" d="M3343.88,1643.1c-2.81-2.11-1.73-5.08-1.71-7.82C3347.38,1636.87,3346.92,1639.71,3343.88,1643.1Z" transform="translate(-72.93 -1470.03)"/><path class="cls-7" d="M1309.74,1618.12c-3.29-1.41-4-4-3.15-7.18C1311.73,1611.55,1313.08,1613.81,1309.74,1618.12Z" transform="translate(-72.93 -1470.03)"/><path class="cls-13" d="M3367.56,1742.41c-2.49-1.56-2.12-3.85-1.6-6.19C3369.39,1737.54,3370.53,1739.45,3367.56,1742.41Z" transform="translate(-72.93 -1470.03)"/><path class="cls-13" d="M3357.79,1715.1a5.46,5.46,0,0,1-3.91-5.85C3357.7,1709.52,3357.85,1712.24,3357.79,1715.1Z" transform="translate(-72.93 -1470.03)"/><path class="cls-6" d="M1029.4,1604.18c-1.62-1-1.85-2.4-1.25-4.07C1030.74,1600.8,1032.51,1601.74,1029.4,1604.18Z" transform="translate(-72.93 -1470.03)"/><path class="cls-13" d="M3350,1703.47c-1.85-.89-2.06-2.41-1.65-4.19C3350.57,1700,3352.83,1700.74,3350,1703.47Z" transform="translate(-72.93 -1470.03)"/><path class="cls-6" d="M1021.93,1559.1l-3.92.22c0-1.27,0-2.53-.07-3.79C1020.25,1555.63,1021.77,1556.6,1021.93,1559.1Z" transform="translate(-72.93 -1470.03)"/><path class="cls-13" d="M3357.71,1865.13c.8-1.68,2.26-2,3.94-2C3361.29,1865.72,3360.73,1867.9,3357.71,1865.13Z" transform="translate(-72.93 -1470.03)"/><path class="cls-13" d="M3365.92,1781.69c-.43-1.77-.23-3.3,1.58-4.24C3370.37,1780.13,3368.16,1780.91,3365.92,1781.69Z" transform="translate(-72.93 -1470.03)"/><path class="cls-13" d="M3351.86,1708.26c0,1-.05,2.09-.07,3.14l-2.21-3.93c.5-.06,1-.1,1.52-.12A1.23,1.23,0,0,1,3351.86,1708.26Z" transform="translate(-72.93 -1470.03)"/><path class="cls-10" d="M1509.51,1700.91l1.79,2.11-1,.85-1.54-2.28Z" transform="translate(-72.93 -1470.03)"/><path class="cls-14" d="M2289.34,1853.1c-12.14,8.63-26.4,11.9-40.37,15.89-5.69.35-8-2.55-7.63-8-.15-3.78.44-7.68-1.75-11.15-.44-5.69,4.55-5.07,7.44-5.5,25.54-3.82,31.68-19.31,33.61-40.47,2.23-24.28,1.32-48.58,1.47-72.87.18-27.24.25-54.49-.1-81.73-.09-7.24,1.35-10.27,9.5-10.09,19.81.42,19.82,0,19.82,20.06,0,43.14.15,86.27-.16,129.41-.07,9.32-1.43,18.69-2.89,27.93C2306.05,1830.79,2299.46,1842.91,2289.34,1853.1Z" transform="translate(-72.93 -1470.03)"/><path class="cls-11" d="M2239.59,1849.87c2.19,3.47,1.6,7.37,1.75,11.15-9.17,1.72-9.8-4.35-9.92-10.88Z" transform="translate(-72.93 -1470.03)"/><path class="cls-10" d="M2671.77,1878.7c21.78-2.57,43.54-5.24,65.33-7.7,18.59-2.09,37.2-4.16,55.84-5.78,6-.51,5.45-4.13,5.55-8.06.45-17.13.6-34.24,1.56-51.38,1.84-32.94,1.6-66,2.63-99,1-31.66,2.48-63.3,3.75-95,11.33-2.13,8,5,8,11.47.05,32.72-2,65.39-2.63,98.1-.86,44-4.19,87.91-3.68,132,.05,4.79-1.09,9.61-1.91,14.38-.85,5-4.29,6.59-9,7.07-38.06,3.78-76.1,7.75-114.15,11.58C2677.3,1887,2671.43,1887.24,2671.77,1878.7Z" transform="translate(-72.93 -1470.03)"/><path class="cls-14" d="M2313.79,1594.55c.17,11-6.15,17.49-17.1,17.68s-17.85-6.26-18.27-16.85c-.41-10.17,7.63-18.42,18.07-18.52S2313.62,1583.51,2313.79,1594.55Z" transform="translate(-72.93 -1470.03)"/><path class="cls-1" d="M2217.51,1699.93c3.55-12.38,3.71-25.18,4.56-37.89.34-5.08,0-10.27,3.32-14.65l7.53,67.49c-5.69.38-5-8.06-10.7-7.71Z" transform="translate(-72.93 -1470.03)"/><path class="cls-11" d="M2222.22,1707.17c5.67-.35,5,8.09,10.7,7.71l.69,12-3.66,0Q2226.08,1717,2222.22,1707.17Z" transform="translate(-72.93 -1470.03)"/><path class="cls-1" d="M2237.51,1800.92c-.3-2.9-1.22-6,2-7.94C2239.69,1795.84,2240.12,1798.77,2237.51,1800.92Z" transform="translate(-72.93 -1470.03)"/><path class="cls-1" d="M2239.46,1793.13c-.3-1.67,0-3.09,1.66-4C2240.94,1790.65,2241.58,1792.47,2239.46,1793.13Z" transform="translate(-72.93 -1470.03)"/><path class="cls-7" d="M2570.81,1638.24c-1.22,15.7-1.17,15.32-16,13.51-24.12-3-48.32-5.28-72.47-8.06-4.07-.47-5,1.19-5.31,4.73-1.9,19-3.7,38-6.15,57-1,7.75,2.39,9.19,9,9.82,23.55,2.23,47,5.18,70.58,7.47,5.2.5,6.38,2.1,5.72,7.22-2.34,18.09-2.1,17.78-20.35,15.39-19.92-2.61-39.95-4.42-59.9-6.75-5.56-.65-9,0-9.58,6.9-2,21.93-4.46,43.82-7,65.69-.64,5.47,1.11,7.23,6.57,7.79,27.08,2.78,54.09,6.22,81.18,8.87,6.19.61,8.46,2,7.75,8.62-1.74,16.09-1.49,16.5-17.69,14.83-34.82-3.58-69.58-7.69-104.39-11.34-4.77-.49-5.67-1.93-5.14-6.66,7.44-66.31,14.58-132.65,21.9-199,2-17.7,2.16-18,19.78-16.32,31.29,3.06,62.51,6.81,93.8,9.84C2571.15,1628.59,2572.89,1632.19,2570.81,1638.24Z" transform="translate(-72.93 -1470.03)"/><path class="cls-6" d="M894,1587.32c15.69,0,15.67,0,20.92,15.37C935,1661.49,955,1720.32,975.36,1779c2.71,7.79,1.8,10-6.84,9.83-17.59-.45-17.6,0-23.17-16.43-4.59-13.49-9.33-26.92-13.66-40.48-1.62-5.06-4.05-7.07-9.66-7-19.14.39-38.3.31-57.44,0-5.13-.08-7.32,1.69-8.83,6.59-4.94,16.08-10.81,31.88-15.57,48-2.11,7.15-5.51,9.49-13,9.24-17.21-.57-17.25-.16-11.58-16.82q29-85,58-170C879.72,1584.3,875.06,1587.77,894,1587.32Zm-.61,26.67c-8.19,29-18.69,56.74-28.15,84.83-2,6,.15,6.46,5.07,6.41,15.55-.17,31.1-.24,46.65,0,5.81.1,6.43-2,4.76-6.9C912.23,1670.32,901.82,1642.6,893.37,1614Z" transform="translate(-72.93 -1470.03)"/><path class="cls-12" d="M1208.67,1643c5.39.82,4,5.06,4.06,8.38.46,17.16-3.14,34-4.62,51-1.7,19.53-4.66,38.95-7,58.42-2,16.61-3.93,33.23-6,49.83-.91,7.4-6.8,6.19-11.28,5.57-13.06-1.83-26-4.39-39-6.5-33.67-5.44-67.31-11.06-101.06-16-6.91-1-10.35,4.55-10.12,11.26.18,5.25-1.56,7.18-7,8a109,109,0,0,1-15.38,1.49q-97.82,0-195.65,0c-7.35,0-14.16-.64-19,8-3,5.39-11.8,4.23-18,5.34-40.55,7.24-81.2,14-121.79,21-5.39.93-10.89.67-16.27,2.33-4,1.23-7.85-.09-8.37-5.4,29.14-5.22,58.27-10.57,87.45-15.63,20.93-3.63,41.94-6.87,62.91-10.32,6.1-1,11.53-2.66,9.2-10.84q16.54-.18,33.1-.35,94.92-.86,189.84-1.72c14.72-.14,12.93,1.76,13-12.87,0-2.27,0-4.54,0-6.81,28.21,3,56.1,8,84.07,12.55,22.27,3.62,44.58,7,66.85,10.67,7.49,1.22,10.34-.69,11.29-9.23,4.35-39.07,10.08-78,14.67-117C1206.1,1670.51,1205.89,1656.61,1208.67,1643Z" transform="translate(-72.93 -1470.03)"/><path class="cls-9" d="M654.72,1783.61c-3.84.94-4.68-2.19-5.32-6.75-5.58-39.73-11.41-79.44-17.16-119.15-1.66-11.53-3.08-23.1-5-34.6-2.61-15.8-2.72-15.5,12.59-18.31,6.28-1.16,8.78.69,9.58,6.86,2.53,19.57,5.35,39.11,8.1,58.66,4,28.2,8,56.39,11.88,84.61.75,5.51,3,6.5,8.43,5.62,19.5-3.17,39.22-5,58.62-8.62,11.85-2.22,10.5,5.66,11.83,12.24,1.69,8.41-4.93,6.68-9.2,7.32-25.31,3.76-50.64,7.36-76,11C660.88,1782.81,658.62,1783.09,654.72,1783.61Z" transform="translate(-72.93 -1470.03)"/><path class="cls-1" d="M597.23,1672.32c-4.59-7-6.57-16-15.41-19.59q-1.14-1.87-2.27-3.77c4.11-6.89.67-14.5,2.06-21.63,2-10.23-.5-21.25,5.38-30.79Q592.12,1634.43,597.23,1672.32Z" transform="translate(-72.93 -1470.03)"/><path class="cls-13" d="M587,1596.54c-5.88,9.54-3.39,20.56-5.38,30.79-1.39,7.13,2,14.74-2.06,21.63l-2-1.8c-1.4-23.13,4.48-45.82,4.29-68.88,0-1.11,1.06-2.23,1.62-3.34A83.26,83.26,0,0,1,587,1596.54Z" transform="translate(-72.93 -1470.03)"/><path class="cls-15" d="M2740.34,1750c0,26.26-.25,52.53.16,78.79.11,7.22-1.86,9.5-9.23,9.35-16.56-.35-16.57.05-16.57-16.4,0-50.26-.16-100.53.17-150.79.06-7.8-1.57-10.87-10-10.46-14.56.71-29.2-.15-43.79.32-9,.29-6.91-5.78-6.76-10.48s-2.89-11.46,6.86-11.41c44.45.25,88.91.31,133.36,0,9.3-.08,7.64,5.65,7.52,10.91-.12,5,2.3,11.4-7.29,11.06-15.23-.56-30.5.16-45.74-.29-6.76-.2-8.91,1.82-8.81,8.7C2740.55,1696.11,2740.34,1723,2740.34,1750Z" transform="translate(-72.93 -1470.03)"/><path class="cls-16" d="M127.52,1656c5.13-4.51,9.57-10,16-13.24,22.31-11.16,47.58-3.7,59.29,18.26,11.17,21,10.43,42.4.69,63.56-10.57,23-46.33,38.82-75.71,10.3,0,16.58-.46,31.93.19,47.24.35,8.11-2.82,9.49-10,9.65-7.85.17-9.79-2.44-9.75-10,.26-43.78.06-87.57-.11-131.35,0-5.49-.63-10.1,7.61-9.87,7,.19,11.37,1.16,10.14,9.48C125.58,1651.7,125,1653.87,127.52,1656Zm.33,39.56c0,3.24-.22,6.5,0,9.72,1.22,15,12,27.36,25.31,29.26,16,2.29,29.44-5.85,34.59-21.74a59.56,59.56,0,0,0,.12-37.26c-4.45-13.79-17-22.86-29.75-22.29-13,.6-24.7,10.45-28.58,24A54.42,54.42,0,0,0,127.85,1695.54Z" transform="translate(-72.93 -1470.03)"/><path class="cls-15" d="M1109.48,1779.33c-36.75-.29-59.53-18-63-49.4-2.67-24.43,5.31-45.92,26.89-59.6s43.87-10.94,65.89-.39c6.78,3.24,2.18,7.47.81,11.38-1.64,4.63-4,5.59-8.77,3.07-9.93-5.27-20.74-7.81-32-5.73-20.83,3.85-35.75,27.32-32.07,49.83,3.78,23.19,23,37.53,46,34.72,4.18-.52,10.09-5.31,12.46,3.32,2.08,7.54.29,11.86-8,12.27C1114.1,1779,1110.55,1779.26,1109.48,1779.33Z" transform="translate(-72.93 -1470.03)"/><path class="cls-9" d="M2937,1784.23c0,20.41-.2,40.81.12,61.22.1,6.11-1.41,8.41-8,8.39-17.36-.06-17.36.27-17.36-17.48,0-36.92.22-73.85-.18-110.77-.09-7.88,1.76-11.58,10.09-10.25a23.06,23.06,0,0,0,6.79,0c6.86-1,8.84,1.86,8.7,8.63C2936.78,1744.06,2937,1764.15,2937,1784.23Z" transform="translate(-72.93 -1470.03)"/><path class="cls-3" d="M1277,1719c0-19.78.23-39.57-.13-59.35-.12-6.4,1.1-9.11,8.35-9,17,.3,17-.11,17,16.78,0,37.3-.17,74.6.14,111.9.06,7.19-1.18,10.29-9.4,10-16-.62-16-.09-16-15.83Z" transform="translate(-72.93 -1470.03)"/><path class="cls-15" d="M2017.13,1666.69c7.68,10,14.22,20.71,18.15,32.83,2,12.33,4,24.45,2,37.22-1.84,11.67-6.08,22.23-10.45,32.91-15.53,20.21-35.46,31.62-61.52,31.48-31.65-.17-55-15.34-65.45-45.33-9.74-27.79-7.65-55.26,10-79.65,21.27-29.5,66.12-36.73,97-16.65C2010.28,1661.79,2013.67,1664.28,2017.13,1666.69Zm-7.15,57.67c.25-7.5-.25-15-2.65-22.08-5.44-16.16-14.45-29.43-32.31-33.08-15.81-3.24-29.43,1.68-40.1,14.1-18,20.93-17.43,63.72,1.12,84.15,17.44,19.21,44.5,18.6,61-1.39C2007.12,1753.93,2010.53,1739.74,2010,1724.36Z" transform="translate(-72.93 -1470.03)"/><path class="cls-12" d="M2026.81,1769.65c4.37-10.68,8.61-21.24,10.45-32.91,2-12.77,0-24.89-2-37.22,7.67,5.9,6.54,15,7.13,22.78,1.33,17.46.75,34.92-8.17,50.94-2.47,4.44-1.3,9.5-.87,14.32q1.73,19.21,3.47,38.42c.43,4.79-.46,8.25-6.52,8.18-3.15,0-6.33,1.67-9.48,1.59-39.18-.93-78.26,3.43-117.44,2-3.94-.14-9.13,1.44-8.73-5.58,19.47-.13,39,.34,58.41-.55,23.58-1.08,47.22-.73,70.76-3.25,6.24-.67,7.63-3.12,7.15-8.55C2029.51,1803.14,2028.19,1786.39,2026.81,1769.65Z" transform="translate(-72.93 -1470.03)"/><path class="cls-15" d="M3349.58,1707.47l2.21,3.93c9.17,22.24,11.24,45,4,68.11-2,6.43-5.24,12.47-7.91,18.69-15.76,18.74-35.06,30.14-60.34,30.06-38.3-.12-67.29-26.68-70.11-65-1.77-24,1.68-46.59,18.4-65.4,23.26-26.15,71.35-32.46,102.63-4.19a6.22,6.22,0,0,0,3.93,3.87C3344.73,1700.9,3345.91,1705.09,3349.58,1707.47Zm-17.1,42.59c.74-9.68-2.17-19.91-6.53-29.74-12.8-28.9-51.47-33.83-70.06-9-14.69,19.62-15.84,57-2.36,77.33,17.67,26.65,51.79,26.51,69.16-.38C3329.93,1777.06,3332.81,1764.6,3332.48,1750.06Z" transform="translate(-72.93 -1470.03)"/><path class="cls-12" d="M3342.37,1697.57a6.22,6.22,0,0,1-3.93-3.87c-.75-30-4.66-59.74-7.48-89.57-.66-7.07-.51-14.22-.73-21.33,7.69,5.54,5,14.23,5.81,21.47,2.05,17.78,2.9,35.69,4.15,53.56.18,2.56.94,4.35,3.67,4.81,0,2.59.06,5.19.1,7.78-2.42,4.94-4.19,9.79,1.73,13.66l.21,3.87C3342.4,1690.3,3345.73,1695.16,3342.37,1697.57Z" transform="translate(-72.93 -1470.03)"/><path class="cls-15" d="M398.48,1676.34l2.16,3.39,1.62,2.41-.06-.05c-.09,5,2.07,9.26,4.12,13.59,0,2.76-.7,5.66,1.65,7.92l.36,3.7c1.17,20.41-1.93,39.93-11.94,58-13.08,16.84-29.78,27-51.25,30-40.39,5.57-75-21.61-79.34-62.58-2-18.8-.26-37,8.86-53.62,19.72-36,68.45-47.6,102.67-24.78,3.22,2.15,6.32,4.5,9.47,6.75q4.8,5.78,9.61,11.56a8.13,8.13,0,0,0,.4,1.27ZM381,1720.39c-.39-15.1-3.31-28.45-11.62-40.31a40,40,0,0,0-66,.2c-16.16,23.22-15.5,57.63,1.55,80.06a39.23,39.23,0,0,0,58.25,4.82C376.47,1752.76,380.21,1736.69,381,1720.39Z" transform="translate(-72.93 -1470.03)"/><path class="cls-12" d="M396.39,1765.34c10-18.11,13.11-37.63,11.93-58,3.48.47,3.16,3.16,3.84,5.72,1.88,7.1.42,14.73,3.63,21.56-.05,1.29-.1,2.59-.14,3.88a86.22,86.22,0,0,0-9.51,31.2q0,3.91-.07,7.83c-2.11,5.49-4.71,11,1.69,15.61.05,3.25.11,6.49.17,9.74-3.29,6.47-2.17,13.18-.53,19.67,1.47,5.85-.58,7.46-6.12,7.68-3.69.14-8.78-2.61-10.73,3.43l-3.91.1c-3-2.93-6.74-1.66-10.15-1.68-33.88-.2-67.68,3.17-101.59,2-5.26-.19-10.1.08-8.89-7.42,16.19-.16,32.38-.77,48.55-.37,24.61.61,49.1-1.66,73.66-2.18,12.31-.25,12.75-1.39,12.31-13.46C400,1795.41,398.4,1780.36,396.39,1765.34Z" transform="translate(-72.93 -1470.03)"/><path class="cls-10" d="M396.41,1672.66q-4.8-5.79-9.61-11.56c-1.12-28.92-4.52-57.64-7.44-86.41-1-9.6-1.56-19.23-2.33-28.84,7.39-1.16,9.17,2.44,9.75,9.36,2.75,32.7,6.19,65.35,9.19,98C396.56,1659.67,396.29,1666.18,396.41,1672.66Z" transform="translate(-72.93 -1470.03)"/><path class="cls-11" d="M266,1826.58c-1.21,7.5,3.63,7.23,8.89,7.42,33.91,1.21,67.71-2.16,101.59-2,3.41,0,7.17-1.25,10.15,1.68-1.52,2.23-3.88,2-6.13,2-36-.14-71.87,2.88-107.87,2.08-8.83-.2-11.87-3.27-10.42-11.56Z" transform="translate(-72.93 -1470.03)"/><path class="cls-15" d="M1508.8,1701.59l1.54,2.28c13.86,29.44,12.59,58.58-1.7,87.47-15.34,19.74-34.76,31.34-60.49,31.3-34.53-.05-58.88-17.63-68.13-50.86-7.53-27-4.43-53.09,12.94-75.63,21.83-28.34,65.67-34.73,95.71-15.13,3.52,2.29,6.89,4.82,10.33,7.25Zm-105.22,45.17c.15,12,2.67,23.87,8.94,34.81,15.61,27.22,51.81,28.93,69,2.72,14-21.33,14.49-44.35,4.84-67.58-6.93-16.66-19.13-26.89-37.87-26.73s-31.5,10.09-38.94,27C1405.47,1726.32,1403.71,1736.13,1403.58,1746.76Z" transform="translate(-72.93 -1470.03)"/><path class="cls-15" d="M1432.19,1653c9-14.57,16.72-27.14,24.46-39.74a6,6,0,0,1,5.48-3.26c7.91.06,15.82,0,25.84,0-12.37,14.56-23,27.75-34.46,40.28C1448.28,1656,1440.78,1652.15,1432.19,1653Z" transform="translate(-72.93 -1470.03)"/><path class="cls-14" d="M3070,1785.61l37-60.09c7.31-11.86,14.58-23.76,22-35.57,3.66-5.85,23.62-6.74,27.44-1.12,2.14,3.15-1.08,5.34-2.59,7.6q-27.37,40.78-54.88,81.47c-6.34,9.41-12.8,18.75-18.92,28.3-2.91,4.56-5.58,6.4-11.69,4.91-16.17-3.94-16.24-3.45-18.74-20.69-5.94-41-11.79-81.94-18.07-122.85-.95-6.18,0-7.45,6.11-6.16,20.38,4.25,20.07,4.1,22,26.07C3062.45,1719.56,3068,1751.33,3070,1785.61Z" transform="translate(-72.93 -1470.03)"/><path class="cls-12" d="M1619.27,1699.26c13.62-15.44,35.2-17.87,49.4-5.55-10.67.56-22-2.25-31.23,5.82Z" transform="translate(-72.93 -1470.03)"/><path class="cls-12" d="M1524.49,1783.19c0-18.12-.56-36.26,1.89-54.29C1531.9,1747.21,1534,1765.4,1524.49,1783.19Z" transform="translate(-72.93 -1470.03)"/><path class="cls-13" d="M1637.44,1699.53c9.27-8.07,20.56-5.26,31.23-5.82l5.55,5.77Z" transform="translate(-72.93 -1470.03)"/><path class="cls-1" d="M1524.41,1839.8c-3.09-16.36-9.07-32.73.1-49.06Q1524.47,1815.27,1524.41,1839.8Z" transform="translate(-72.93 -1470.03)"/><path class="cls-8" d="M2118.65,1753.82c-.59-11.28-.12-24.36,7.76-36.18,18-27,56.46-25.69,71.09,3.17,11.44,22.56,10.23,46-.92,68.29-8.59,17.2-27.37,24.49-46.25,19.86a41.14,41.14,0,0,1-31.66-39.4C2118.54,1765,2118.65,1760.48,2118.65,1753.82Z" transform="translate(-72.93 -1470.03)"/><path class="cls-8" d="M563.91,1699.44a69.07,69.07,0,0,1-4.15,28.64c-7.15,20.2-26.83,31.46-47.84,27.68-19-3.42-33.36-20.66-33.64-40.86-.16-11-.92-22.18.63-33,3.33-23.17,22.23-38.19,44.85-37.11,20.9,1,38,19.19,40.1,43C564.21,1691.64,563.91,1695.55,563.91,1699.44Z" transform="translate(-72.93 -1470.03)"/><path class="cls-12" d="M588,1668.18a4.42,4.42,0,0,1,3.39,3c13.49,32,7.56,80.67-22.44,101.29-5.24,3.6-6.64,9.94-6.8,16.42-.61,25.27-.7,25.8-25.33,25.42-31.73-.49-63.35,2.17-95,2.21-5.63,0-10.71-.16-10.42-7.79,37.55-.7,75.1-1.57,112.66-2,7.42-.08,11.66-2.34,10.09-10-1.78-8.59,4.85-17,.09-25.43,36-21.45,42.16-60.6,34.85-97.6C588.67,1671.92,588.34,1670.05,588,1668.18Z" transform="translate(-72.93 -1470.03)"/><path class="cls-11" d="M415.79,1734.58c-3.21-6.83-1.75-14.46-3.63-21.56-.68-2.56-.36-5.25-3.84-5.72-.11-1.23-.23-2.47-.35-3.7,3.63-3.51.16-5.54-1.65-7.92-2.05-4.33-4.21-8.62-4.12-13.59,8.5,4.36,9.72,13.18,11.38,20.88C415.81,1713.26,420.23,1723.72,415.79,1734.58Z" transform="translate(-72.93 -1470.03)"/><path class="cls-11" d="M390.55,1833.62c1.95-6,7-3.29,10.73-3.43,5.54-.22,7.59-1.83,6.12-7.68-1.64-6.49-2.76-13.2.53-19.67,4.15,7.65,1.56,16.28,3.47,24.35,1,4-3.94,5.75-7.34,6.24C399.64,1834.07,395.06,1833.6,390.55,1833.62Z" transform="translate(-72.93 -1470.03)"/><path class="cls-11" d="M406.14,1769.66a86.22,86.22,0,0,1,9.51-31.2C415.52,1749.78,413.17,1760.43,406.14,1769.66Z" transform="translate(-72.93 -1470.03)"/><path class="cls-11" d="M407.76,1793.1c-6.4-4.57-3.8-10.12-1.69-15.61C409.69,1782.37,407.49,1787.87,407.76,1793.1Z" transform="translate(-72.93 -1470.03)"/><path class="cls-10" d="M398.48,1676.34l-1.67-2.41Z" transform="translate(-72.93 -1470.03)"/><path class="cls-11" d="M402.26,1682.14l-1.62-2.41Z" transform="translate(-72.93 -1470.03)"/><path class="cls-9" d="M893.37,1614c8.45,28.61,18.86,56.33,28.33,84.36,1.67,4.94,1,7-4.76,6.9-15.55-.26-31.1-.19-46.65,0-4.92,0-7.08-.44-5.07-6.41C874.68,1670.73,885.18,1643,893.37,1614Z" transform="translate(-72.93 -1470.03)"/><path class="cls-6" d="M127.86,1695.55a54.19,54.19,0,0,1,1.72-18.28c3.88-13.59,15.53-23.44,28.58-24,12.74-.57,25.3,8.5,29.75,22.29a59.56,59.56,0,0,1-.12,37.26c-5.15,15.89-18.58,24-34.59,21.74-13.36-1.9-24.09-14.23-25.31-29.26C127.63,1702,127.85,1698.78,127.86,1695.55Z" transform="translate(-72.93 -1470.03)"/><path class="cls-5" d="M2010,1724.35c.54,15.39-2.87,29.58-12.9,41.71-16.55,20-43.61,20.6-61,1.39-18.55-20.43-19.1-63.22-1.12-84.15,10.67-12.42,24.29-17.34,40.1-14.1,17.86,3.65,26.87,16.92,32.31,33.08C2009.73,1709.39,2010.23,1716.86,2010,1724.35Z" transform="translate(-72.93 -1470.03)"/><path class="cls-5" d="M3332.48,1750.06c.33,14.54-2.55,27-9.79,38.2-17.37,26.89-51.49,27-69.16.38-13.48-20.32-12.33-57.71,2.36-77.33,18.59-24.82,57.26-19.89,70.06,9C3330.31,1730.15,3333.22,1740.38,3332.48,1750.06Z" transform="translate(-72.93 -1470.03)"/><path class="cls-5" d="M381,1720.39c-.82,16.3-4.56,32.37-17.78,44.77a39.23,39.23,0,0,1-58.25-4.82c-17.05-22.43-17.71-56.84-1.55-80.06a40,40,0,0,1,66-.2C377.72,1691.94,380.64,1705.29,381,1720.39Z" transform="translate(-72.93 -1470.03)"/><path class="cls-12" d="M406.32,1695.68c1.81,2.38,5.28,4.41,1.65,7.92C405.62,1701.34,406.29,1698.44,406.32,1695.68Z" transform="translate(-72.93 -1470.03)"/><path class="cls-5" d="M1403.58,1746.76c.13-10.63,1.89-20.44,6-29.75,7.44-16.94,20.08-26.88,38.94-27s30.94,10.07,37.87,26.73c9.65,23.23,9.16,46.25-4.84,67.58-17.19,26.21-53.39,24.5-69-2.72C1406.25,1770.63,1403.73,1758.75,1403.58,1746.76Z" transform="translate(-72.93 -1470.03)"/></svg>